<svg width="1503" height="376" viewBox="0 0 1503 376" fill="none" xmlns="http://www.w3.org/2000/svg">
<path fill-rule="evenodd" clip-rule="evenodd" d="M92.9 0V375.3H103.7V0H92.7H92.9ZM159.9 267.8C169.66 267.8 179.02 263.923 185.922 257.022C192.823 250.12 196.7 240.76 196.7 231C196.7 221.24 192.823 211.88 185.922 204.978C179.02 198.077 169.66 194.2 159.9 194.2C150.14 194.2 140.78 198.077 133.878 204.978C126.977 211.88 123.1 221.24 123.1 231C123.1 240.76 126.977 250.12 133.878 257.022C140.78 263.923 150.14 267.8 159.9 267.8ZM196.6 140C196.86 144.987 196.103 149.975 194.373 154.661C192.644 159.346 189.979 163.63 186.541 167.252C183.103 170.874 178.963 173.759 174.375 175.73C169.786 177.701 164.844 178.718 159.85 178.718C154.856 178.718 149.914 177.701 145.325 175.73C140.737 173.759 136.597 170.874 133.159 167.252C129.721 163.63 127.056 159.346 125.327 154.661C123.597 149.975 122.84 144.987 123.1 140C123.591 130.585 127.677 121.717 134.516 115.227C141.354 108.736 150.422 105.118 159.85 105.118C169.278 105.118 178.346 108.736 185.184 115.227C192.023 121.717 196.109 130.585 196.6 140ZM36.8 222.3C46.56 222.3 55.9202 218.423 62.8215 211.522C69.7229 204.62 73.6 195.26 73.6 185.5C73.6 175.74 69.7229 166.38 62.8215 159.478C55.9202 152.577 46.56 148.7 36.8 148.7C27.04 148.7 17.6798 152.577 10.7785 159.478C3.87716 166.38 0 175.74 0 185.5C0 195.26 3.87716 204.62 10.7785 211.522C17.6798 218.423 27.04 222.3 36.8 222.3Z" fill="#1DAFEC"/>
<path fill-rule="evenodd" clip-rule="evenodd" d="M311 48.6001V327.3H356.6V306.6C364.534 314.903 374.06 321.52 384.61 326.056C395.16 330.592 406.516 332.954 418 333C445 333 467.4 323.1 485.1 303.4C502.9 283.5 511.9 258.4 511.9 227.9C511.9 198.5 503 173.9 485.3 154.1C477.385 144.841 467.58 137.383 456.545 132.226C445.509 127.069 433.498 124.332 421.318 124.199C409.138 124.067 397.07 126.542 385.925 131.457C374.78 136.373 364.815 143.616 356.7 152.7V43.1001L311 48.6001ZM449.7 183.7C460.368 196.706 465.852 213.196 465.1 230C465.1 247.8 459.9 262.7 449.3 274.6C444.461 280.26 438.425 284.775 431.629 287.818C424.832 290.862 417.445 292.358 410 292.2C402.347 292.49 394.727 291.059 387.7 288.013C380.674 284.967 374.42 280.383 369.4 274.6C358.658 261.753 353.158 245.326 354 228.6C354 209.9 359.2 194.8 369.6 183.1C374.722 177.335 381.051 172.77 388.137 169.728C395.223 166.686 402.893 165.243 410.6 165.5C426.3 165.5 439.3 171.5 449.7 183.7Z" fill="#20365C"/>
<path d="M1332.8 48.6V327.3H1378.5V231.8C1378.5 207.5 1381.6 190.3 1388 180.3C1394.5 170.4 1405.7 165.5 1421.6 165.5C1434.1 165.5 1443.1 169.1 1448.6 176.2C1454.3 183.2 1457.1 194.7 1457.1 210.5V327.3H1502.8V206.3C1502.8 178.7 1497.1 158.6 1485.8 146C1478.95 138.747 1470.61 133.055 1461.36 129.311C1452.12 125.566 1442.17 123.857 1432.2 124.3C1412.11 124.49 1392.86 132.362 1378.4 146.3V43L1332.8 48.5V48.6ZM547 129.8H592.5V147.4C598.92 140.203 606.489 134.12 614.9 129.4C621.5 126 629.3 124.4 638.4 124.4C650.4 124.4 663 128.2 676.1 136.1L655.2 177.9C647.973 172.17 639.115 168.879 629.9 168.5C604.9 168.5 592.5 187.3 592.5 224.9V327.3H547V129.8Z" fill="#20365C"/>
<path fill-rule="evenodd" clip-rule="evenodd" d="M832 129.8H877.7V327.3H832V306.6C823.598 315.259 813.494 322.084 802.324 326.646C791.154 331.208 779.161 333.408 767.099 333.108C755.038 332.807 743.169 330.012 732.241 324.9C721.312 319.787 711.561 312.467 703.6 303.4C685.611 282.447 676.152 255.5 677.1 227.9C677.1 198.3 685.9 173.7 703.6 153.9C711.547 144.716 721.358 137.328 732.38 132.228C743.403 127.127 755.384 124.431 767.529 124.317C779.674 124.204 791.704 126.676 802.819 131.57C813.935 136.463 823.882 143.666 832 152.7V129.7V129.8ZM723.6 227.9C723.6 246.9 728.6 262.3 738.8 274.2C749.2 286.2 762.4 292.2 778.2 292.2C795.1 292.2 808.7 286.4 819.2 274.8C829.881 261.986 835.438 245.67 834.8 229C834.8 210.4 829.5 195.2 819.1 183.1C814.072 177.352 807.831 172.792 800.828 169.749C793.824 166.705 786.232 165.254 778.6 165.5C762.9 165.5 749.8 171.5 739.2 183.3C728.658 195.723 723.099 211.615 723.6 227.9Z" fill="#20365C"/>
<path d="M922.2 129.8H968.1V148C984.1 132.2 1002 124.3 1022 124.3C1045 124.3 1062.9 131.5 1075.7 146C1086.8 158.3 1092.4 178.4 1092.4 206.2V327.3H1046.5V217C1046.5 197.5 1043.8 184 1038.5 176.6C1033.2 169.1 1023.5 165.3 1009.6 165.3C994.5 165.3 983.7 170.3 977.4 180.3C971.2 190.2 968.1 207.4 968.1 232V327.3H922.2V129.8ZM1151.7 222.6C1151.69 210.513 1155.28 198.695 1162 188.649C1168.72 178.602 1178.27 170.778 1189.45 166.171C1200.62 161.564 1212.92 160.381 1224.77 162.772C1236.61 165.163 1247.49 171.02 1256 179.6L1287 148.8C1269.92 131.6 1247.41 120.857 1223.29 118.405C1199.18 115.952 1174.96 121.942 1154.77 135.351C1134.58 148.761 1119.67 168.76 1112.58 191.938C1105.49 215.115 1106.66 240.034 1115.89 262.445C1125.12 284.856 1141.84 303.37 1163.2 314.828C1184.56 326.287 1209.23 329.98 1233.01 325.279C1256.79 320.577 1278.2 307.772 1293.59 289.047C1308.98 270.322 1317.39 246.838 1317.4 222.6H1273.7C1273.7 238.778 1267.27 254.294 1255.83 265.734C1244.39 277.173 1228.88 283.6 1212.7 283.6C1196.52 283.6 1181.01 277.173 1169.57 265.734C1158.13 254.294 1151.7 238.778 1151.7 222.6Z" fill="#20365C"/>
</svg>
