<svg width="200" height="72" viewBox="0 0 200 72" fill="none" xmlns="http://www.w3.org/2000/svg">
<path d="M101.37 36.6564C102.661 35.2721 104.079 34.1201 105.94 33.678C108.986 32.9591 111.96 33.0082 114.696 34.7542C117.305 36.4197 118.463 38.965 118.974 41.8229C119.526 44.8906 119.448 47.9583 118.591 50.9859C117.218 55.8263 113.114 58.4967 108.024 57.9742C105.52 57.7197 103.414 56.8445 101.785 54.9511C101.402 54.5091 101.161 54.4108 101.015 55.0985C100.892 55.679 100.668 56.2416 100.591 56.8266C100.504 57.4964 100.166 57.6661 99.5234 57.6482C97.3891 57.5902 97.7722 57.8626 97.7722 55.9514C97.7585 45.5425 97.7813 35.1292 97.7403 24.7204C97.7357 23.7157 98.0185 23.4746 99.0081 23.5058C101.453 23.5728 101.471 23.5237 101.448 25.877C101.411 29.4448 101.589 33.0127 101.37 36.6564ZM115.462 45.2032C115.44 44.7656 115.43 43.9439 115.353 43.1312C114.938 38.7864 113.041 36.576 109.155 36.3215C105.247 36.067 102.615 37.3843 101.822 41.4969C101.266 44.3726 101.27 47.2573 101.922 50.124C102.529 52.7899 104.171 54.4064 106.952 54.9065C111.057 55.6433 113.939 53.8526 114.983 49.8874C115.353 48.4718 115.449 47.034 115.462 45.2032Z" fill="#F99D33"/>
<path d="M196.242 57.5768C196.032 57.6125 195.996 57.6259 195.959 57.6259C194.596 57.608 193.05 57.9787 191.919 57.4607C190.884 56.9873 190.291 55.5718 189.52 54.5582C187.586 52.0308 185.639 49.5078 183.737 46.9581C183.327 46.4088 183.113 46.4088 182.529 46.7973C180.882 47.8869 180.089 49.2086 180.326 51.2449C180.536 53.0801 180.349 54.9601 180.381 56.8177C180.394 57.4384 180.212 57.6348 179.555 57.6527C176.714 57.7197 176.719 57.7465 176.719 55.0047C176.719 44.9263 176.728 34.8479 176.701 24.7695C176.696 23.8675 176.805 23.4567 177.904 23.4969C180.372 23.5862 180.381 23.5192 180.372 25.9618C180.349 32.2089 180.312 38.456 180.29 44.7031C180.29 44.837 180.226 45.0022 180.504 45.1183C181.252 44.2387 181.982 43.3054 182.793 42.448C185.429 39.6706 188.102 36.9243 190.747 34.1513C191.107 33.7718 191.476 33.5664 192.028 33.5842C193.118 33.6199 194.208 33.5932 195.294 33.5932C195.417 34.0576 195.07 34.1915 194.888 34.3835C192.069 37.3039 189.26 40.2287 186.401 43.1044C185.812 43.6939 185.844 44.0422 186.328 44.6584C189.424 48.6103 192.475 52.5934 195.54 56.5721C195.75 56.8712 195.955 57.1749 196.242 57.5768Z" fill="#F99D33"/>
<path d="M83.7761 46.2793C81.2678 46.2793 78.7641 46.3017 76.2558 46.2659C75.5399 46.2525 75.3757 46.458 75.4122 47.1501C75.6767 52.0933 78.7596 55.0226 83.6302 54.8842C85.883 54.8216 88.0903 54.4823 90.1881 53.6562C91.0501 53.3168 91.2507 53.4686 91.2325 54.3796C91.1823 56.6524 91.2279 56.6524 88.9203 57.3223C85.9879 58.1751 83.0099 58.3314 80.0365 57.6974C75.9731 56.8311 73.2596 54.3796 72.2061 50.4589C70.9566 45.806 71.1435 41.2334 74.0759 37.1208C76.1692 34.1871 79.211 33.1377 82.7728 33.227C88.7333 33.3788 92.0807 37.7772 92.2768 43.5153C92.3726 46.2838 92.368 46.2838 89.5861 46.2838C87.6525 46.2793 85.7143 46.2793 83.7761 46.2793ZM81.8607 43.35C83.7168 43.35 85.5775 43.359 87.4336 43.3456C87.7711 43.3411 88.1724 43.5019 88.2727 42.8946C88.7151 40.2466 86.6674 37.036 83.995 36.4555C79.357 35.4463 76.1692 38.0094 75.4988 42.774C75.403 43.4661 75.8819 43.35 76.2832 43.35C78.1439 43.35 80.0046 43.35 81.8607 43.35Z" fill="#596B6D"/>
<path d="M0.0136787 41.7157C-0.0912125 38.8445 0.465166 36.1652 1.59617 33.611C3.8308 28.5696 7.89419 25.9395 13.3485 25.3098C16.892 24.9035 20.3854 25.2652 23.7556 26.5334C24.5035 26.8147 24.8227 27.0826 24.3165 27.8596C23.8696 28.5428 23.7145 29.5788 23.108 29.936C22.5288 30.2798 21.6714 29.5386 20.9235 29.3064C18.3058 28.4892 15.6288 28.1766 12.9518 28.7482C7.92612 29.8199 5.34488 33.2047 4.40542 37.938C3.83536 40.8137 3.93113 43.7117 4.64713 46.5651C6.01071 51.9772 10.106 54.9065 16.0757 54.7413C18.324 54.6787 20.5313 54.3394 22.6975 53.7589C23.3086 53.5936 23.5184 53.6785 23.491 54.326C23.3679 57.3133 24.1569 56.7551 20.9098 57.5009C17.8817 58.1975 14.7805 58.3359 11.7432 57.7956C5.44065 56.6658 1.64177 52.7586 0.469727 46.5115C0.164175 44.8995 -0.0592891 43.2831 0.0136787 41.7157Z" fill="#596B6D"/>
<path d="M139.232 54.1295C138.867 54.518 138.648 54.7189 138.465 54.9467C135.711 58.3582 130.649 58.5904 127.415 57.4875C124.716 56.5676 123.229 54.4421 123.119 51.6467C122.992 48.3557 124.278 46.1632 127.096 44.8906C129.632 43.743 132.345 43.4929 135.082 43.3724C136.144 43.3277 137.207 43.2607 138.269 43.2786C138.999 43.292 139.209 42.9794 139.122 42.3364C139.104 42.189 139.118 42.0372 139.118 41.8898C139.108 37.4468 136.983 35.6696 132.473 36.3215C130.849 36.5582 129.294 37.0226 127.808 37.6924C127.21 37.9648 126.941 37.9826 126.654 37.286C125.774 35.1382 125.742 35.1694 127.985 34.3478C130.854 33.2984 133.809 32.9501 136.815 33.4815C140.627 34.1558 142.629 36.3617 142.698 40.1349C142.798 45.7078 142.725 51.285 142.748 56.8623C142.748 57.416 142.615 57.6304 141.995 57.6482C140.048 57.7063 140.048 57.7331 139.615 55.8308C139.505 55.3396 139.391 54.8395 139.232 54.1295ZM139.067 47.6859C139.067 47.4627 139.035 47.2349 139.072 47.0206C139.25 46.0337 138.862 45.7212 137.845 45.8283C136.039 46.0248 134.22 46.1007 132.405 46.2481C131.337 46.3329 130.32 46.6321 129.363 47.0965C127.552 47.9762 126.699 49.7445 127.023 51.8566C127.279 53.5222 128.473 54.7234 130.288 54.9467C135.41 55.5718 139.186 53.1158 139.067 47.6859Z" fill="#F99D33"/>
<path d="M27.8235 45.547C27.8691 42.3275 28.4301 39.2687 30.6191 36.6877C32.311 34.6916 34.532 33.678 37.0904 33.3342C38.6319 33.1288 40.2052 33.102 41.733 33.4369C46.4212 34.4684 49.4949 37.9692 50.1653 42.9348C50.5256 45.5872 50.3842 48.1995 49.5953 50.7671C48.3229 54.9065 44.939 57.5187 40.5564 57.9385C37.8611 58.1975 35.3164 57.8849 33.0133 56.4515C29.4106 54.2054 28.1929 50.6956 27.8281 46.7705C27.7916 46.3686 27.8235 45.9578 27.8235 45.547ZM46.5124 45.6319C46.5352 44.0243 46.3345 42.4391 45.8237 40.9075C44.8022 37.8487 42.2301 36.1474 38.8599 36.259C35.3894 36.3751 33.0589 38.0451 32.2198 41.162C31.4309 44.0913 31.4263 47.0518 32.2153 49.9811C33.0726 53.156 35.435 54.9199 38.7641 54.9913C42.4307 55.0672 44.7931 53.4999 45.8511 50.2491C46.3345 48.7532 46.5215 47.2037 46.5124 45.6319Z" fill="#596B6D"/>
<path d="M153.314 36.8975C154.632 35.0489 156.411 33.9147 158.614 33.4771C160.839 33.035 163.065 33.0841 165.231 33.8164C168.318 34.8658 169.572 37.228 169.864 40.2198C170.106 42.7026 169.946 45.1987 169.969 47.6904C169.992 50.7001 169.956 53.7142 169.992 56.7239C170.001 57.4562 169.769 57.6527 169.025 57.6572C166.248 57.6572 166.248 57.6884 166.248 54.9422C166.248 50.776 166.248 46.6142 166.248 42.448C166.248 41.9256 166.252 41.4031 166.202 40.8896C165.938 38.1702 164.515 36.5939 161.783 36.3662C155.668 35.866 153.451 38.5676 153.269 44.2654C153.136 48.3513 153.219 52.446 153.26 56.5363C153.269 57.3892 153.073 57.6795 152.147 57.6572C149.57 57.6036 149.566 57.6482 149.566 55.0896C149.566 48.2843 149.575 41.479 149.552 34.6738C149.547 33.9147 149.639 33.5396 150.573 33.5708C152.535 33.6289 152.525 33.5708 152.913 35.4329C153.004 35.9018 152.936 36.4063 153.314 36.8975Z" fill="#F99D33"/>
<path d="M200 6.34532C200.005 9.89978 197.159 12.7219 193.538 12.7666C189.935 12.8112 186.939 9.87298 186.957 6.323C186.975 2.80427 189.88 0 193.506 0C197.163 0.00446539 200 2.77301 200 6.34532Z" fill="#F99D33"/>
<path d="M59.6146 38.0853C60.399 36.6698 61.4343 35.6517 62.5744 34.7318C64.6677 33.0439 67.1212 33.093 69.6158 33.3386C70.0399 33.3788 70.049 33.6959 70.0034 34.004C69.9077 34.705 69.7845 35.3972 69.7024 36.0982C69.6431 36.6207 69.3923 36.7323 68.8679 36.6832C68.0424 36.6073 67.2261 36.4019 66.3778 36.5091C62.6884 36.969 59.8609 39.9921 59.7606 43.8636C59.6511 48.0655 59.6922 52.2674 59.7332 56.4694C59.7423 57.3714 59.5417 57.6839 58.5612 57.6572C55.9845 57.5946 55.9845 57.6438 55.9845 55.0806C55.9845 48.3468 56.0027 41.6175 55.9617 34.8837C55.9571 33.9013 56.1624 33.5128 57.2569 33.5708C59.0035 33.6646 58.999 33.5932 59.2224 35.3213C59.3365 36.192 59.2224 37.0851 59.6146 38.0853Z" fill="#596B6D"/>
<path d="M183.318 64.4713C182.766 65.8735 182.242 67.289 181.649 68.6733C181.48 69.0618 181.557 69.736 180.832 69.7048C180.194 69.678 180.267 69.0841 180.107 68.7135C179.542 67.3649 179.017 65.9985 178.26 64.6901C178.26 66.0878 178.269 67.481 178.251 68.8787C178.247 69.2047 178.434 69.6959 177.804 69.7048C177.134 69.7137 177.389 69.1913 177.389 68.8921C177.366 67.1461 177.366 65.3957 177.389 63.6497C177.394 63.3059 177.147 62.7879 177.877 62.7611C178.42 62.7432 178.78 62.8191 178.994 63.413C179.56 64.9804 180.203 66.5254 180.896 68.2893C181.557 66.6237 182.169 65.168 182.711 63.6899C182.939 63.0692 183.19 62.6316 183.979 62.7656C184.823 62.9085 184.408 63.5292 184.417 63.9132C184.467 65.5832 184.444 67.2622 184.431 68.9323C184.426 69.2582 184.613 69.736 183.956 69.7182C183.3 69.7003 183.532 69.2091 183.523 68.901C183.5 67.4498 183.514 65.9985 183.514 64.5517C183.455 64.5205 183.386 64.4981 183.318 64.4713Z" fill="#596B6D"/>
<path d="M94.0691 67.9901C94.3838 67.0434 94.7167 66.1012 95.0131 65.1456C95.1317 64.7661 95.232 64.4579 95.7382 64.449C96.2764 64.4446 96.3265 64.833 96.4405 65.1724C96.7643 66.1548 97.0745 67.1372 97.4803 68.4143C97.8224 67.1283 98.0869 66.1369 98.3514 65.1456C98.4608 64.7348 98.5931 64.2927 99.1632 64.4892C99.6876 64.6723 99.3182 65.0474 99.2452 65.3287C98.926 66.5478 98.5885 67.7623 98.2419 68.9769C98.137 69.352 98.0914 69.7405 97.4803 69.7405C96.8556 69.7405 96.851 69.3074 96.7279 68.9546C96.3949 67.9767 96.0985 66.9898 95.7109 65.7663C95.2959 67.0345 94.9538 68.0571 94.6255 69.0841C94.5069 69.4637 94.3746 69.7494 93.8684 69.7271C93.4215 69.7092 93.3166 69.4904 93.2208 69.1243C92.8743 67.7981 92.482 66.4808 92.1218 65.159C92.0534 64.9045 91.8436 64.5473 92.3544 64.4713C92.6964 64.4222 92.929 64.5517 93.0202 64.9134C93.2801 65.9405 93.5583 66.963 93.8274 67.9856C93.9095 67.9856 93.987 67.9856 94.0691 67.9901Z" fill="#596B6D"/>
<path d="M194.523 66.0342C195.471 66.4674 195.937 67.0836 195.736 68.0928C195.526 69.1511 194.774 69.5351 193.807 69.6735C190.902 70.0888 190.829 70.0263 190.829 67.155C190.829 66.0074 190.884 64.8554 190.811 63.7078C190.756 62.8906 191.071 62.6718 191.837 62.7566C192.361 62.8147 192.895 62.77 193.424 62.7879C194.29 62.8147 195.102 62.9531 195.43 63.9042C195.754 64.842 195.426 65.543 194.523 66.0342ZM191.75 67.6552C191.764 68.325 191.508 69.0528 192.685 68.968C194.167 68.8608 194.833 68.5349 194.746 67.6284C194.628 66.3245 193.52 66.5745 192.671 66.4361C191.495 66.2441 191.777 67.0791 191.75 67.6552ZM191.764 64.583C191.668 65.2662 191.691 65.8333 192.694 65.6993C193.497 65.5877 194.546 65.7886 194.523 64.5874C194.5 63.3907 193.406 63.6452 192.635 63.5113C191.691 63.3505 191.677 63.931 191.764 64.583Z" fill="#596B6D"/>
<path d="M169.048 68.2625C169.048 67.2578 169.03 66.253 169.053 65.2483C169.071 64.4044 169.176 64.324 169.855 64.7884C170.193 65.0161 170.229 64.7393 170.371 64.6678C171.365 64.1677 172.3 64.2615 173.102 65.0027C173.896 65.7395 173.992 67.7266 173.367 68.7894C172.765 69.812 171.78 69.9682 170.799 69.6557C169.983 69.3967 169.892 69.6199 169.942 70.2942C169.974 70.7006 169.937 71.1114 169.946 71.5222C169.956 71.8392 169.837 72.0089 169.49 72.0045C169.139 71.9955 169.043 71.808 169.048 71.4999C169.053 70.4192 169.048 69.3386 169.048 68.2625ZM172.806 67.0166C172.806 66.9362 172.824 66.7889 172.801 66.6415C172.678 65.8512 172.377 65.2126 171.41 65.1947C170.444 65.1769 170.106 65.744 170.006 66.5835C169.942 67.1104 169.992 67.6239 170.129 68.1196C170.27 68.6197 170.653 68.9189 171.187 69.0037C171.73 69.093 172.154 68.8742 172.459 68.45C172.747 68.0481 172.865 67.5837 172.806 67.0166Z" fill="#596B6D"/>
<path d="M123.439 64.7259C124.063 64.6857 124.501 64.3151 125.044 64.3686C125.983 64.4624 126.754 64.8063 127.032 65.7485C127.388 66.9586 127.488 68.1955 126.526 69.2002C125.828 69.9281 124.912 69.9013 124 69.5664C123.799 69.4904 123.585 69.3118 123.407 69.3431C122.536 69.4994 122.536 69.5217 122.536 68.6956C122.531 66.8425 122.527 64.9893 122.54 63.1362C122.545 62.8058 122.371 62.319 123.001 62.3324C123.635 62.3458 123.407 62.8459 123.425 63.163C123.466 63.672 123.439 64.1811 123.439 64.7259ZM126.316 66.8737C126.325 66.4049 126.266 65.7395 125.641 65.3867C125.048 65.0474 124.387 65.0608 123.872 65.5922C123.343 66.1369 123.338 67.9678 123.854 68.5527C124.305 69.0618 124.889 69.1913 125.495 68.8832C126.243 68.5036 126.312 67.7802 126.316 66.8737Z" fill="#596B6D"/>
<path d="M117.875 64.7973C117.875 64.0784 117.879 63.4443 117.875 62.8147C117.87 62.52 117.939 62.319 118.313 62.3235C118.655 62.328 118.787 62.4753 118.787 62.7924C118.782 64.9491 118.782 67.1059 118.791 69.2627C118.791 69.5976 118.541 69.8655 118.345 69.678C117.784 69.1466 117.355 69.6199 116.867 69.7226C115.476 70.0084 114.482 69.3743 114.172 68.0079C114.058 67.4944 114.017 66.9898 114.112 66.4629C114.468 64.5473 115.686 63.9534 117.875 64.7973ZM117.87 67.1416C117.87 65.8065 117.391 65.1769 116.393 65.1947C115.508 65.2126 114.965 65.936 114.965 67.1149C114.965 68.2714 115.54 69.026 116.429 69.026C117.364 69.026 117.875 68.3607 117.87 67.1416Z" fill="#596B6D"/>
<path d="M138.52 69.7807C136.91 69.8164 135.943 69.2716 135.41 68.0392C134.776 66.579 135.077 64.5026 136.057 63.5425C136.919 62.7031 138.821 62.3726 139.998 62.8772C140.176 62.9531 140.508 62.9665 140.385 63.288C140.303 63.5113 140.226 63.8149 139.852 63.7435C139.742 63.7212 139.628 63.6988 139.523 63.6631C138.374 63.2836 137.344 63.3907 136.6 64.4356C135.898 65.4225 135.912 67.1595 136.628 68.1106C137.271 68.968 138.183 69.0484 139.172 68.9233C139.514 68.8787 140.08 68.4857 140.176 69.1198C140.271 69.7762 139.61 69.6512 139.195 69.7226C138.976 69.7673 138.744 69.7628 138.52 69.7807Z" fill="#596B6D"/>
<path d="M129.974 68.5349C130.475 67.1908 130.886 66.1593 131.242 65.1099C131.392 64.6634 131.625 64.3061 132.113 64.4892C132.696 64.708 132.213 65.1144 132.113 65.3778C131.451 67.1506 130.758 68.9144 130.06 70.6738C129.691 71.6115 129.012 72.1027 127.944 71.9643C127.725 71.9375 127.475 71.9464 127.466 71.6249C127.456 71.3347 127.634 71.3034 127.885 71.2409C129.322 70.8926 129.696 70.1647 129.153 68.834C128.674 67.6641 128.168 66.5076 127.73 65.3242C127.643 65.0876 127.165 64.7169 127.703 64.4937C128.177 64.2972 128.446 64.6008 128.61 65.0563C129.007 66.1325 129.44 67.1818 129.974 68.5349Z" fill="#596B6D"/>
<path d="M81.4001 66.1816C81.4001 65.2885 81.432 64.3954 81.3864 63.5068C81.3545 62.9085 81.5779 62.7164 82.1662 62.7611C82.7728 62.8058 83.3839 62.7522 83.9859 62.8102C85.1807 62.9174 85.8465 63.5515 85.9423 64.6053C86.0426 65.7127 85.4726 66.7398 84.3233 66.7933C82.5584 66.8782 81.9793 67.5882 82.3122 69.2047C82.3669 69.4726 82.2985 69.7093 81.9154 69.7226C81.505 69.736 81.3955 69.5619 81.4001 69.1957C81.4092 68.1866 81.4001 67.1863 81.4001 66.1816ZM83.051 66.1861C84.3553 66.1503 84.9801 65.7127 84.9892 64.8688C84.9983 64.0337 84.2321 63.4264 83.0236 63.5336C81.6099 63.6586 82.563 64.7795 82.3441 65.4135C82.1571 65.9673 82.4216 66.3513 83.051 66.1861Z" fill="#596B6D"/>
<path d="M91.6247 67.1149C91.6064 68.7849 90.6533 69.7807 89.089 69.7762C87.6388 69.7718 86.6537 68.6822 86.6765 67.1059C86.6993 65.3912 87.6981 64.3374 89.276 64.3642C90.6761 64.3865 91.6429 65.5163 91.6247 67.1149ZM89.1483 65.1903C88.1815 65.1903 87.6069 65.9226 87.6251 67.1238C87.6434 68.2491 88.2225 68.9903 89.1073 69.0216C90.0376 69.0528 90.6761 68.2848 90.6989 67.1149C90.7126 65.9494 90.1015 65.1858 89.1483 65.1903Z" fill="#596B6D"/>
<path d="M145.881 67.0568C145.899 68.7224 144.96 69.7539 143.409 69.7762C141.94 69.7986 140.951 68.7492 140.937 67.1684C140.924 65.4537 141.899 64.3776 143.477 64.3686C144.891 64.3508 145.863 65.4403 145.881 67.0568ZM141.886 66.9541C141.826 68.1062 142.406 68.9501 143.304 69.0171C144.234 69.0841 144.9 68.3384 144.95 67.1684C145.001 66.0119 144.403 65.2171 143.464 65.1858C142.511 65.159 141.95 65.7886 141.886 66.9541Z" fill="#596B6D"/>
<path d="M102.333 69.7718C101.243 69.8075 100.358 69.419 99.9521 68.4009C99.4869 67.2265 99.5645 66.0387 100.417 65.0384C101.006 64.3463 101.826 64.2168 102.702 64.4847C103.687 64.7839 104.335 65.8244 104.23 66.8246C104.184 67.2667 103.943 67.2711 103.623 67.2667C102.862 67.2667 102.105 67.2979 101.348 67.2577C100.577 67.2176 100.627 67.6507 100.837 68.0928C101.238 68.9367 101.986 69.0484 102.853 68.9769C103.217 68.9457 103.824 68.325 103.943 69.0618C104.061 69.7941 103.268 69.6512 102.784 69.736C102.634 69.7673 102.483 69.7628 102.333 69.7718ZM102.082 66.6594C102.351 66.2352 103.14 67.0032 103.19 66.1905C103.227 65.5922 102.748 65.1858 102.059 65.1858C101.361 65.1903 100.768 65.5207 100.814 66.1995C100.864 66.963 101.626 66.3513 102.082 66.6594Z" fill="#596B6D"/>
<path d="M111.44 69.7718C110.345 69.8075 109.465 69.4145 109.064 68.3964C108.603 67.222 108.681 66.0342 109.534 65.0384C110.127 64.3508 110.947 64.2213 111.823 64.4892C112.808 64.7884 113.456 65.8422 113.346 66.8335C113.296 67.2801 113.045 67.2711 112.731 67.2711C112.01 67.2711 111.285 67.3069 110.569 67.2622C109.684 67.2086 109.707 67.6418 110.013 68.2044C110.405 68.9367 111.093 69.026 111.864 68.9993C112.27 68.9859 112.94 68.3428 113.05 69.0752C113.164 69.8343 112.297 69.6601 111.782 69.7494C111.673 69.7673 111.554 69.7628 111.44 69.7718ZM111.13 66.6772C111.399 66.1816 112.27 67.1015 112.302 66.1503C112.32 65.552 111.818 65.1679 111.134 65.1858C110.482 65.1992 109.94 65.5162 109.93 66.1325C109.912 66.9898 110.697 66.3379 111.13 66.6772Z" fill="#596B6D"/>
<path d="M153 69.7673C151.7 69.7718 150.829 69.2493 150.487 68.2535C150.076 67.0702 150.405 65.485 151.217 64.842C151.978 64.2392 152.84 64.2124 153.679 64.6187C154.559 65.0429 154.806 65.8556 154.833 66.7666C154.847 67.2756 154.546 67.2756 154.176 67.2712C153.456 67.2622 152.731 67.3024 152.015 67.2622C151.203 67.2131 151.207 67.6284 151.467 68.1464C151.864 68.9323 152.58 69.0439 153.396 68.9903C153.789 68.9635 154.445 68.3562 154.541 69.1198C154.632 69.8209 153.816 69.6557 153.337 69.7494C153.232 69.7673 153.114 69.7628 153 69.7673ZM152.644 66.6192C153.004 66.3379 153.766 66.9898 153.798 66.1727C153.821 65.5743 153.337 65.1724 152.653 65.1858C151.955 65.1992 151.362 65.5386 151.426 66.2173C151.495 66.9541 152.243 66.3602 152.644 66.6192Z" fill="#596B6D"/>
<path d="M165.938 69.7807C164.857 69.9147 164.228 69.352 163.808 68.4679C163.279 67.3515 163.53 65.7172 164.383 64.8286C164.953 64.2391 165.65 64.3017 166.371 64.5026C166.914 64.6544 167.288 64.9983 167.543 65.4805C168.209 66.7308 167.89 67.2711 166.485 67.2711C166.106 67.2711 165.723 67.2309 165.349 67.2845C165.026 67.3292 164.529 67.0121 164.405 67.5659C164.287 68.0928 164.56 68.5081 165.026 68.767C165.587 69.0796 166.175 69.0394 166.786 68.8921C167.037 68.834 167.461 68.4545 167.58 69.0618C167.671 69.5396 167.256 69.6021 166.946 69.678C166.626 69.7539 166.28 69.7494 165.938 69.7807ZM165.65 66.6326C166.011 66.3334 166.781 66.9988 166.795 66.1637C166.804 65.5654 166.321 65.1769 165.641 65.1858C164.998 65.1947 164.428 65.4895 164.433 66.1101C164.437 67.0032 165.272 66.3111 165.65 66.6326Z" fill="#596B6D"/>
<path d="M188.143 62.7656C188.599 62.7656 189.055 62.7611 189.506 62.7656C189.775 62.77 190.067 62.7566 190.049 63.1496C190.035 63.5113 189.771 63.5425 189.488 63.5425C189.069 63.547 188.644 63.5961 188.239 63.5381C187.203 63.3907 186.939 63.7837 186.911 64.7973C186.88 65.8824 187.322 65.9807 188.22 65.9717C188.763 65.9673 189.785 65.5341 189.798 66.3915C189.812 67.2131 188.799 66.8067 188.316 66.7532C187.094 66.6192 186.861 67.1104 186.916 68.1776C186.943 68.6643 187.445 69.6601 186.455 69.6512C185.562 69.6423 186.091 68.7001 186.063 68.2089C185.981 66.8023 186.095 65.3823 186.013 63.9757C185.958 63.0335 186.173 62.5646 187.231 62.7566C187.527 62.8102 187.842 62.7656 188.143 62.7656Z" fill="#596B6D"/>
<path d="M157.218 69.7852C156.881 69.7405 156.539 69.7182 156.21 69.6423C155.823 69.553 155.613 69.3029 155.754 68.9055C155.909 68.4723 156.187 68.8608 156.406 68.8519C156.548 68.8474 156.689 68.9591 156.84 68.9769C157.478 69.0439 158.285 69.2404 158.545 68.517C158.819 67.7445 157.961 67.6239 157.451 67.3962C156.543 66.9898 155.503 66.6862 155.786 65.3912C155.964 64.5696 157.255 64.1409 158.527 64.4535C158.828 64.5294 159.434 64.4133 159.325 64.9983C159.202 65.677 158.687 65.2528 158.326 65.2305C158.098 65.2171 157.875 65.1456 157.651 65.1546C157.277 65.1724 156.812 65.1635 156.685 65.5832C156.525 66.1012 157.004 66.2709 157.378 66.4406C157.756 66.6103 158.144 66.7532 158.522 66.9184C159.206 67.222 159.653 67.7043 159.526 68.4813C159.393 69.2984 158.801 69.6467 158.007 69.7271C157.752 69.7539 157.487 69.7673 157.218 69.7852Z" fill="#596B6D"/>
<path d="M162.116 69.7718C161.058 69.7896 160.493 69.3386 160.479 68.325C160.47 67.6195 160.47 66.9184 160.461 66.2129C160.461 65.9896 160.543 65.6324 160.433 65.5654C158.933 64.6321 160.971 64.2258 160.748 63.4845C160.702 63.3371 160.917 63.2612 161.076 63.2746C161.25 63.288 161.364 63.4086 161.345 63.5693C161.245 64.3374 161.642 64.5428 162.335 64.458C162.568 64.4312 162.809 64.4714 162.832 64.7705C162.859 65.1322 162.604 65.2215 162.317 65.1769C161.304 65.0072 161.332 65.6368 161.364 66.3111C161.391 66.905 161.382 67.4944 161.391 68.0883C161.4 68.642 161.619 69.0127 162.253 69.035C162.527 69.0439 162.942 68.9055 162.882 69.4056C162.823 69.9057 162.358 69.6914 162.116 69.7718Z" fill="#596B6D"/>
<path d="M105.443 67.1015C105.443 66.4004 105.443 65.6949 105.447 64.9938C105.452 64.5651 105.894 64.2481 106.04 64.5473C106.446 65.3734 106.729 64.7482 107.062 64.5874C107.372 64.4356 107.691 64.3508 108.042 64.3642C108.348 64.3776 108.558 64.449 108.535 64.8062C108.521 65.0518 108.43 65.1724 108.152 65.2483C106.569 65.6681 106.378 65.9271 106.35 67.4899C106.341 67.9722 106.369 68.45 106.341 68.9323C106.323 69.2538 106.528 69.745 105.876 69.7137C105.242 69.6825 105.475 69.1957 105.457 68.8787C105.416 68.2848 105.443 67.6954 105.443 67.1015Z" fill="#596B6D"/>
<path d="M146.934 67.039C146.934 66.3736 146.934 65.7083 146.934 65.0429C146.934 64.7125 147.222 64.2838 147.39 64.5071C148.02 65.3376 148.421 64.5249 148.923 64.4401C149.292 64.3776 149.821 64.132 149.99 64.6589C150.195 65.3019 149.634 65.2037 149.228 65.2483C148.375 65.3421 147.988 65.9137 147.915 66.6773C147.837 67.4855 147.855 68.2982 147.833 69.1109C147.824 69.4011 147.878 69.7182 147.409 69.7227C146.971 69.7316 146.93 69.4726 146.934 69.1466C146.939 68.4411 146.934 67.74 146.934 67.039Z" fill="#596B6D"/>
<path d="M115.462 45.2032C115.449 47.034 115.353 48.4718 114.979 49.8874C113.935 53.8482 111.052 55.6433 106.948 54.9065C104.166 54.4063 102.52 52.7899 101.918 50.124C101.266 47.2573 101.261 44.3726 101.817 41.4969C102.615 37.3887 105.247 36.067 109.151 36.3215C113.041 36.576 114.938 38.7864 115.348 43.1312C115.426 43.9439 115.44 44.7656 115.462 45.2032Z" fill="#FEFEFE"/>
<path d="M81.8607 43.35C80.0046 43.35 78.1439 43.35 76.2878 43.35C75.8864 43.35 75.4076 43.4661 75.5034 42.774C76.1738 38.0094 79.357 35.4463 83.9995 36.4555C86.672 37.036 88.7242 40.251 88.2773 42.8946C88.1769 43.4974 87.7756 43.3411 87.4381 43.3456C85.5775 43.3545 83.7214 43.35 81.8607 43.35Z" fill="#FEFEFE"/>
<path d="M139.067 47.6859C139.181 53.1159 135.405 55.5718 130.293 54.9422C128.478 54.7189 127.283 53.5177 127.028 51.8521C126.704 49.7445 127.557 47.9717 129.367 47.092C130.32 46.6276 131.342 46.3285 132.409 46.2436C134.224 46.0963 136.044 46.0203 137.85 45.8239C138.867 45.7122 139.254 46.0248 139.077 47.0161C139.035 47.2349 139.067 47.4627 139.067 47.6859Z" fill="#FEFEFE"/>
<path d="M46.5124 45.6319C46.5215 47.2037 46.3345 48.7487 45.8465 50.2491C44.7885 53.4999 42.4262 55.0717 38.7595 54.9913C35.4304 54.9199 33.0681 53.156 32.2107 49.9811C31.4217 47.0518 31.4263 44.0868 32.2153 41.162C33.0544 38.0496 35.3848 36.3751 38.8553 36.259C42.2255 36.1474 44.7976 37.8487 45.8192 40.9075C46.3345 42.4391 46.5306 44.0243 46.5124 45.6319Z" fill="#FEFEFE"/>
<path d="M191.75 67.6552C191.777 67.0791 191.495 66.2441 192.671 66.4361C193.52 66.5745 194.628 66.3245 194.746 67.6284C194.828 68.5348 194.167 68.8608 192.685 68.968C191.508 69.0528 191.768 68.3205 191.75 67.6552Z" fill="#FEFEFE"/>
<path d="M191.764 64.583C191.677 63.931 191.691 63.3505 192.635 63.5113C193.406 63.6452 194.5 63.3907 194.523 64.5874C194.546 65.7886 193.497 65.5877 192.694 65.6993C191.691 65.8333 191.668 65.2662 191.764 64.583Z" fill="#FEFEFE"/>
<path d="M172.806 67.0166C172.861 67.5837 172.747 68.0481 172.459 68.4545C172.158 68.8787 171.734 69.0975 171.187 69.0082C170.653 68.9233 170.27 68.6242 170.129 68.124C169.992 67.6284 169.942 67.1149 170.006 66.5879C170.106 65.744 170.444 65.1769 171.41 65.1992C172.377 65.2171 172.674 65.8556 172.801 66.646C172.829 66.7889 172.806 66.9362 172.806 67.0166Z" fill="#FEFEFE"/>
<path d="M126.316 66.8737C126.312 67.7802 126.243 68.5036 125.495 68.8787C124.889 69.1868 124.305 69.0573 123.854 68.5482C123.338 67.9633 123.343 66.1369 123.872 65.5877C124.387 65.0563 125.044 65.0474 125.641 65.3823C126.266 65.7395 126.33 66.4049 126.316 66.8737Z" fill="#FEFEFE"/>
<path d="M117.87 67.1416C117.87 68.3607 117.364 69.026 116.429 69.026C115.544 69.026 114.965 68.2759 114.965 67.1149C114.965 65.9405 115.503 65.2126 116.393 65.1947C117.391 65.1769 117.87 65.8065 117.87 67.1416Z" fill="#FEFEFE"/>
<path d="M83.051 66.1861C82.4216 66.3557 82.1571 65.9673 82.3441 65.4135C82.5584 64.7795 81.6053 63.6586 83.0236 63.5336C84.2367 63.4264 85.0029 64.0337 84.9892 64.8688C84.9801 65.7083 84.3553 66.1503 83.051 66.1861Z" fill="#FEFEFE"/>
<path d="M89.1483 65.1903C90.1015 65.1903 90.7171 65.9494 90.6943 67.1149C90.6761 68.2893 90.0376 69.0528 89.1027 69.0216C88.218 68.9903 87.6388 68.2491 87.6206 67.1238C87.6069 65.9226 88.1815 65.1903 89.1483 65.1903Z" fill="#FEFEFE"/>
<path d="M141.886 66.9541C141.95 65.7842 142.511 65.159 143.464 65.1858C144.399 65.2171 144.996 66.0119 144.95 67.1684C144.9 68.3384 144.239 69.0886 143.304 69.0171C142.406 68.9546 141.826 68.1106 141.886 66.9541Z" fill="#FEFEFE"/>
<path d="M102.082 66.6594C101.626 66.3513 100.869 66.963 100.814 66.1995C100.768 65.5207 101.357 65.1903 102.059 65.1858C102.748 65.1813 103.222 65.5922 103.19 66.1905C103.14 67.0077 102.346 66.2352 102.082 66.6594Z" fill="#FEFEFE"/>
<path d="M111.13 66.6772C110.697 66.3379 109.912 66.9898 109.93 66.1325C109.944 65.5162 110.487 65.1992 111.134 65.1858C111.818 65.1679 112.32 65.5564 112.302 66.1503C112.275 67.1015 111.399 66.1816 111.13 66.6772Z" fill="#FEFEFE"/>
<path d="M152.644 66.6192C152.243 66.3602 151.495 66.9541 151.426 66.2128C151.362 65.5386 151.955 65.1947 152.653 65.1813C153.337 65.1679 153.821 65.5698 153.798 66.1682C153.766 66.9898 153.004 66.3379 152.644 66.6192Z" fill="#FEFEFE"/>
<path d="M165.65 66.6326C165.272 66.3156 164.437 67.0077 164.433 66.1102C164.428 65.4895 164.998 65.1947 165.641 65.1858C166.321 65.1769 166.804 65.5654 166.795 66.1637C166.781 66.9988 166.011 66.3334 165.65 66.6326Z" fill="#FEFEFE"/>
</svg>
