<svg width="157" height="32" viewBox="0 0 157 32" fill="none" xmlns="http://www.w3.org/2000/svg">
<rect y="0.975586" width="30.0488" height="30.0488" rx="3.7561" fill="#E5B7A0"/>
<rect width="7" height="4" transform="matrix(1 0 0 -1 13 11.9756)" fill="#2054D2"/>
<rect width="7" height="4" transform="matrix(1 0 0 -1 13 18.9756)" fill="#2054D2"/>
<rect width="4" height="14" transform="matrix(1 0 0 -1 9 25.9756)" fill="#2054D2"/>
<path d="M44.6715 22.5H46.5645V15.9419H51.8381V14.184H46.5645V9.45132H52.379V7.67093H44.6715V22.5ZM54.4384 22.5H56.2639V6.27366H54.4384V22.5ZM63.9496 22.7479C67.1272 22.7479 69.2682 20.5619 69.2682 17.249C69.2682 13.9361 67.1272 11.75 63.9496 11.75C60.7494 11.75 58.6084 13.9586 58.6084 17.2715C58.6084 20.5619 60.7494 22.7479 63.9496 22.7479ZM63.9496 21.0802C61.8762 21.0802 60.4789 19.5477 60.4789 17.249C60.4789 14.9502 61.8762 13.4178 63.9496 13.4178C66.0229 13.4178 67.3977 14.9728 67.3977 17.2715C67.3977 19.5477 66.0229 21.0802 63.9496 21.0802ZM75.1427 22.7254C76.54 22.7254 77.5541 22.162 78.2978 21.0802L78.4556 22.5H80.1233V11.998H78.2978V19.4576C77.7795 20.4041 76.9005 21.0577 75.7061 21.0577C74.3088 21.0577 73.4299 20.1337 73.4299 18.5561V11.998H71.6044V18.804C71.6044 21.1703 72.844 22.7254 75.1427 22.7254ZM82.9613 22.5H84.7868V15.0179C85.1924 14.2516 85.9587 13.7107 86.9277 13.7107C87.4461 13.7107 87.9193 13.8009 88.3926 14.0037V11.9529C88.0095 11.8177 87.6264 11.7726 87.2207 11.7726C86.2291 11.7726 85.2375 12.4036 84.7868 13.5304V11.998H82.9613V22.5ZM90.092 8.73015H92.0076V6.85961H90.092V8.73015ZM90.1371 22.5H91.9625V11.998H90.1371V22.5ZM97.5282 22.7254C99.9171 22.7254 101.247 21.4859 101.247 19.5477C101.247 17.9701 100.345 17.0461 98.1818 16.325L97.8437 16.2123C96.6042 15.8066 96.1309 15.3334 96.1309 14.6347C96.1309 13.7783 96.7845 13.2825 97.9113 13.2825C98.9255 13.2825 99.9847 13.5755 100.864 14.1164V12.4036C99.9171 11.998 98.8128 11.7726 97.7761 11.7726C95.5224 11.7726 94.3055 12.8769 94.3055 14.7474C94.3055 16.3024 95.1844 17.2039 97.1902 17.88L97.5282 17.9927C98.8579 18.4209 99.4213 18.9392 99.4213 19.728C99.4213 20.652 98.7001 21.1929 97.4831 21.1929C96.3563 21.1929 95.252 20.8548 94.328 20.2463V21.9366C95.2745 22.4324 96.4239 22.7254 97.5282 22.7254ZM103.495 22.5H105.321V14.9953C105.929 14.0488 106.876 13.4403 107.957 13.4403C109.377 13.4403 110.211 14.2967 110.211 15.9644V22.5H112.059V15.6489C112.059 13.2375 110.774 11.7726 108.476 11.7726C107.214 11.7726 106.087 12.3811 105.321 13.4178V6.27366H103.495V22.5ZM114.83 22.5H117.805V14.1615L117.692 10.7134L118.999 14.1615L121.163 19.5702H124.25L126.414 14.1615L127.698 10.7359L127.586 14.1615V22.5H130.696V7.67093H125.94L123.867 13.0346L122.808 16.3024L121.749 13.0797L119.675 7.67093H114.83V22.5ZM133.581 22.5H136.736V16.7306H141.604V13.7558H136.736V10.6458H141.897V7.67093H133.581V22.5ZM144.233 22.5H148.898C152.324 22.5 154.149 21.1027 154.149 18.3533C154.149 16.5278 153.113 15.3559 151.422 14.9052C152.82 14.3192 153.676 13.1248 153.676 11.3895C153.676 8.91044 152.008 7.67093 148.605 7.67093H144.233V22.5ZM147.388 13.7558V10.3979H148.628C149.777 10.3979 150.543 10.9613 150.543 12.043C150.543 13.1924 149.777 13.7558 148.628 13.7558H147.388ZM147.388 19.7731V16.325H149.011C150.205 16.325 151.017 16.9109 151.017 18.0378C151.017 19.1871 150.205 19.7731 149.011 19.7731H147.388Z" fill="#FFFCF4"/>
</svg>
