<svg width="162" height="40" viewBox="0 0 162 40" fill="none" xmlns="http://www.w3.org/2000/svg">
<g clip-path="url(#clip0_3409_276)">
<path d="M55.5758 38.0127L55.5654 32.7221L52.9409 37.1309H52.4637L49.8391 32.7532V38.0127H48.8433V30.7511H49.6939L52.723 35.855L55.7106 30.7511H56.5613L56.5717 38.0127H55.5758ZM59.4356 32.5146H60.4315V38.0127H59.4356V32.5146ZM59.9335 31.4565C59.7399 31.4565 59.5774 31.3943 59.446 31.2698C59.3215 31.1453 59.2592 30.9932 59.2592 30.8134C59.2592 30.6336 59.3215 30.4814 59.446 30.3569C59.5774 30.2255 59.7399 30.1598 59.9335 30.1598C60.1272 30.1598 60.2862 30.2221 60.4107 30.3465C60.5421 30.4641 60.6078 30.6128 60.6078 30.7926C60.6078 30.9793 60.5421 31.1384 60.4107 31.2698C60.2862 31.3943 60.1272 31.4565 59.9335 31.4565ZM65.5592 38.0749C64.999 38.0749 64.4976 37.9539 64.055 37.7119C63.6193 37.4698 63.2769 37.1378 63.028 36.716C62.779 36.2872 62.6545 35.8031 62.6545 35.2637C62.6545 34.7242 62.779 34.2436 63.028 33.8217C63.2769 33.393 63.6193 33.061 64.055 32.8259C64.4976 32.5838 64.999 32.4628 65.5592 32.4628C66.0571 32.4628 66.4997 32.5631 66.887 32.7636C67.2812 32.9642 67.5855 33.2546 67.7999 33.635L67.0426 34.1226C66.8697 33.8598 66.6553 33.6627 66.3994 33.5313C66.1435 33.3999 65.86 33.3342 65.5488 33.3342C65.1892 33.3342 64.8641 33.4137 64.5737 33.5728C64.2901 33.7318 64.0653 33.96 63.8994 34.2574C63.7403 34.5479 63.6608 34.8833 63.6608 35.2637C63.6608 35.651 63.7403 35.9933 63.8994 36.2907C64.0653 36.5811 64.2901 36.8059 64.5737 36.965C64.8641 37.124 65.1892 37.2035 65.5488 37.2035C65.86 37.2035 66.1435 37.1378 66.3994 37.0064C66.6553 36.875 66.8697 36.6779 67.0426 36.4151L67.7999 36.8923C67.5855 37.2727 67.2812 37.5666 66.887 37.7741C66.4997 37.9747 66.0571 38.0749 65.5592 38.0749ZM70.8735 33.4379C71.0464 33.1198 71.3023 32.8777 71.6411 32.7117C71.98 32.5458 72.3915 32.4628 72.8756 32.4628V33.4275C72.8203 33.4206 72.7442 33.4172 72.6474 33.4172C72.1079 33.4172 71.6826 33.5797 71.3714 33.9047C71.0671 34.2228 70.915 34.6793 70.915 35.274V38.0127H69.9191V32.5146H70.8735V33.4379ZM77.2371 38.0749C76.6907 38.0749 76.1997 37.9539 75.764 37.7119C75.3283 37.4698 74.986 37.1378 74.737 36.716C74.495 36.2872 74.3739 35.8031 74.3739 35.2637C74.3739 34.7242 74.495 34.2436 74.737 33.8217C74.986 33.393 75.3283 33.061 75.764 32.8259C76.1997 32.5838 76.6907 32.4628 77.2371 32.4628C77.7834 32.4628 78.271 32.5838 78.6998 32.8259C79.1355 33.061 79.4743 33.393 79.7164 33.8217C79.9654 34.2436 80.0898 34.7242 80.0898 35.2637C80.0898 35.8031 79.9654 36.2872 79.7164 36.716C79.4743 37.1378 79.1355 37.4698 78.6998 37.7119C78.271 37.9539 77.7834 38.0749 77.2371 38.0749ZM77.2371 37.2035C77.5898 37.2035 77.9045 37.124 78.1811 36.965C78.4646 36.799 78.6859 36.5708 78.845 36.2803C79.0041 35.9829 79.0836 35.644 79.0836 35.2637C79.0836 34.8833 79.0041 34.5479 78.845 34.2574C78.6859 33.96 78.4646 33.7318 78.1811 33.5728C77.9045 33.4137 77.5898 33.3342 77.2371 33.3342C76.8844 33.3342 76.5662 33.4137 76.2827 33.5728C76.0061 33.7318 75.7848 33.96 75.6188 34.2574C75.4597 34.5479 75.3802 34.8833 75.3802 35.2637C75.3802 35.644 75.4597 35.9829 75.6188 36.2803C75.7848 36.5708 76.0061 36.799 76.2827 36.965C76.5662 37.124 76.8844 37.2035 77.2371 37.2035ZM84.3095 31.0727C83.7147 31.0727 83.4174 31.3943 83.4174 32.0375V32.5146H85.0149V33.3342H83.4381V38.0127H82.4422V33.3342H81.5086V32.5146H82.4422V32.0271C82.4422 31.4807 82.6013 31.0485 82.9194 30.7304C83.2375 30.4122 83.6836 30.2532 84.2576 30.2532C84.4789 30.2532 84.6864 30.2808 84.88 30.3362C85.0737 30.3915 85.2397 30.471 85.378 30.5748L85.0771 31.332C84.8489 31.1592 84.593 31.0727 84.3095 31.0727ZM86.7888 32.5146H87.7847V38.0127H86.7888V32.5146ZM87.2867 31.4565C87.0931 31.4565 86.9306 31.3943 86.7992 31.2698C86.6747 31.1453 86.6125 30.9932 86.6125 30.8134C86.6125 30.6336 86.6747 30.4814 86.7992 30.3569C86.9306 30.2255 87.0931 30.1598 87.2867 30.1598C87.4804 30.1598 87.6394 30.2221 87.7639 30.3465C87.8953 30.4641 87.961 30.6128 87.961 30.7926C87.961 30.9793 87.8953 31.1384 87.7639 31.2698C87.6394 31.3943 87.4804 31.4565 87.2867 31.4565ZM93.4478 32.4628C94.1463 32.4628 94.6996 32.6668 95.1076 33.0748C95.5226 33.4759 95.73 34.0672 95.73 34.8487V38.0127H94.7342V34.9628C94.7342 34.4303 94.6062 34.0292 94.3503 33.7595C94.0944 33.4898 93.7279 33.3549 93.2507 33.3549C92.7113 33.3549 92.286 33.514 91.9748 33.8321C91.6635 34.1433 91.5079 34.5928 91.5079 35.1807V38.0127H90.5121V32.5146H91.4664V33.3445C91.667 33.061 91.9367 32.8431 92.2756 32.691C92.6214 32.5389 93.0121 32.4628 93.4478 32.4628ZM100.405 32.4628C101.166 32.4628 101.747 32.6495 102.148 33.023C102.556 33.3964 102.76 33.9531 102.76 34.6931V38.0127H101.816V37.2865C101.65 37.5424 101.411 37.7395 101.1 37.8778C100.796 38.0092 100.433 38.0749 100.011 38.0749C99.3954 38.0749 98.9009 37.9262 98.5274 37.6289C98.1609 37.3315 97.9776 36.9407 97.9776 36.4566C97.9776 35.9725 98.154 35.5853 98.5067 35.2948C98.8594 34.9974 99.4196 34.8487 100.187 34.8487H101.764V34.6516C101.764 34.2228 101.64 33.8943 101.391 33.6661C101.142 33.4379 100.775 33.3238 100.291 33.3238C99.9659 33.3238 99.6478 33.3791 99.3366 33.4898C99.0254 33.5935 98.7626 33.7353 98.5482 33.9151L98.1332 33.1682C98.4168 32.94 98.7557 32.7671 99.1499 32.6495C99.5441 32.525 99.9625 32.4628 100.405 32.4628ZM100.177 37.3073C100.557 37.3073 100.886 37.2243 101.162 37.0583C101.439 36.8854 101.64 36.6434 101.764 36.3322V35.5645H100.229C99.385 35.5645 98.9631 35.8481 98.9631 36.4151C98.9631 36.6918 99.0703 36.9096 99.2847 37.0687C99.4991 37.2278 99.7965 37.3073 100.177 37.3073ZM108.368 32.4628C109.067 32.4628 109.62 32.6668 110.028 33.0748C110.443 33.4759 110.651 34.0672 110.651 34.8487V38.0127H109.655V34.9628C109.655 34.4303 109.527 34.0292 109.271 33.7595C109.015 33.4898 108.649 33.3549 108.171 33.3549C107.632 33.3549 107.207 33.514 106.895 33.8321C106.584 34.1433 106.429 34.5928 106.429 35.1807V38.0127H105.433V32.5146H106.387V33.3445C106.588 33.061 106.857 32.8431 107.196 32.691C107.542 32.5389 107.933 32.4628 108.368 32.4628ZM115.75 38.0749C115.19 38.0749 114.689 37.9539 114.246 37.7119C113.81 37.4698 113.468 37.1378 113.219 36.716C112.97 36.2872 112.846 35.8031 112.846 35.2637C112.846 34.7242 112.97 34.2436 113.219 33.8217C113.468 33.393 113.81 33.061 114.246 32.8259C114.689 32.5838 115.19 32.4628 115.75 32.4628C116.248 32.4628 116.691 32.5631 117.078 32.7636C117.472 32.9642 117.777 33.2546 117.991 33.635L117.234 34.1226C117.061 33.8598 116.846 33.6627 116.591 33.5313C116.335 33.3999 116.051 33.3342 115.74 33.3342C115.38 33.3342 115.055 33.4137 114.765 33.5728C114.481 33.7318 114.257 33.96 114.091 34.2574C113.931 34.5479 113.852 34.8833 113.852 35.2637C113.852 35.651 113.931 35.9933 114.091 36.2907C114.257 36.5811 114.481 36.8059 114.765 36.965C115.055 37.124 115.38 37.2035 115.74 37.2035C116.051 37.2035 116.335 37.1378 116.591 37.0064C116.846 36.875 117.061 36.6779 117.234 36.4151L117.991 36.8923C117.777 37.2727 117.472 37.5666 117.078 37.7741C116.691 37.9747 116.248 38.0749 115.75 38.0749ZM124.998 35.2948C124.998 35.3709 124.991 35.4711 124.977 35.5956H120.517C120.579 36.0797 120.79 36.4705 121.15 36.7679C121.516 37.0583 121.969 37.2035 122.509 37.2035C123.166 37.2035 123.695 36.9822 124.096 36.5396L124.646 37.1828C124.397 37.4733 124.085 37.6946 123.712 37.8467C123.345 37.9989 122.934 38.0749 122.477 38.0749C121.896 38.0749 121.381 37.9574 120.932 37.7222C120.482 37.4802 120.133 37.1448 119.884 36.716C119.642 36.2872 119.521 35.8031 119.521 35.2637C119.521 34.7312 119.638 34.2505 119.874 33.8217C120.116 33.393 120.444 33.061 120.859 32.8259C121.281 32.5838 121.755 32.4628 122.28 32.4628C122.806 32.4628 123.273 32.5838 123.681 32.8259C124.096 33.061 124.417 33.393 124.646 33.8217C124.881 34.2505 124.998 34.7415 124.998 35.2948ZM122.28 33.303C121.803 33.303 121.402 33.4483 121.077 33.7387C120.759 34.0292 120.572 34.4096 120.517 34.8798H124.044C123.989 34.4165 123.798 34.0396 123.473 33.7491C123.155 33.4517 122.758 33.303 122.28 33.303ZM135.858 34.247C136.28 34.3646 136.612 34.579 136.854 34.8902C137.096 35.1945 137.217 35.5818 137.217 36.0521C137.217 36.6814 136.978 37.1655 136.501 37.5044C136.031 37.8433 135.343 38.0127 134.437 38.0127H130.972V30.7511H134.229C135.059 30.7511 135.699 30.9171 136.148 31.2491C136.605 31.581 136.833 32.0409 136.833 32.6288C136.833 33.0091 136.743 33.3376 136.563 33.6143C136.391 33.8909 136.155 34.1018 135.858 34.247ZM132.009 31.5914V33.9151H134.136C134.668 33.9151 135.077 33.8183 135.36 33.6246C135.651 33.4241 135.796 33.1336 135.796 32.7532C135.796 32.3729 135.651 32.0859 135.36 31.8922C135.077 31.6917 134.668 31.5914 134.136 31.5914H132.009ZM134.395 37.1724C134.983 37.1724 135.426 37.0756 135.723 36.882C136.021 36.6883 136.169 36.384 136.169 35.9691C136.169 35.1599 135.578 34.7554 134.395 34.7554H132.009V37.1724H134.395ZM141.51 32.4628C142.271 32.4628 142.852 32.6495 143.253 33.023C143.661 33.3964 143.865 33.9531 143.865 34.6931V38.0127H142.921V37.2865C142.755 37.5424 142.516 37.7395 142.205 37.8778C141.901 38.0092 141.538 38.0749 141.116 38.0749C140.5 38.0749 140.006 37.9262 139.632 37.6289C139.266 37.3315 139.083 36.9407 139.083 36.4566C139.083 35.9725 139.259 35.5853 139.612 35.2948C139.964 34.9974 140.524 34.8487 141.292 34.8487H142.869V34.6516C142.869 34.2228 142.744 33.8943 142.495 33.6661C142.246 33.4379 141.88 33.3238 141.396 33.3238C141.071 33.3238 140.753 33.3791 140.441 33.4898C140.13 33.5935 139.867 33.7353 139.653 33.9151L139.238 33.1682C139.522 32.94 139.861 32.7671 140.255 32.6495C140.649 32.525 141.067 32.4628 141.51 32.4628ZM141.282 37.3073C141.662 37.3073 141.991 37.2243 142.267 37.0583C142.544 36.8854 142.744 36.6434 142.869 36.3322V35.5645H141.334C140.49 35.5645 140.068 35.8481 140.068 36.4151C140.068 36.6918 140.175 36.9096 140.39 37.0687C140.604 37.2278 140.901 37.3073 141.282 37.3073ZM149.473 32.4628C150.172 32.4628 150.725 32.6668 151.133 33.0748C151.548 33.4759 151.756 34.0672 151.756 34.8487V38.0127H150.76V34.9628C150.76 34.4303 150.632 34.0292 150.376 33.7595C150.12 33.4898 149.753 33.3549 149.276 33.3549C148.737 33.3549 148.312 33.514 148 33.8321C147.689 34.1433 147.534 34.5928 147.534 35.1807V38.0127H146.538V32.5146H147.492V33.3445C147.693 33.061 147.962 32.8431 148.301 32.691C148.647 32.5389 149.038 32.4628 149.473 32.4628ZM156.565 35.4504L155.424 36.5085V38.0127H154.429V30.3154H155.424V35.2533L158.422 32.5146H159.626L157.312 34.7865L159.854 38.0127H158.63L156.565 35.4504Z" fill="black"/>
<path d="M57.661 16.4637H61.8613V20.7046C60.9909 21.5994 59.6703 22.0543 57.9334 22.0543C56.556 22.0543 55.3262 21.731 54.2818 21.0956C53.2374 20.4564 52.4201 19.5504 51.8525 18.3924C51.2811 17.2307 50.9935 15.8622 50.9935 14.3207C50.9935 12.7792 51.2735 11.4634 51.826 10.3016C52.3784 9.14367 53.1542 8.2376 54.1305 7.60974C55.1105 6.98188 56.2382 6.66607 57.4831 6.66607C58.5994 6.66607 59.5908 6.91796 60.4309 7.41799C61.271 7.91803 61.9067 8.58348 62.3267 9.39557L62.391 9.51964L65.0928 7.96314L65.0474 7.85787C64.495 6.56832 63.5414 5.53441 62.217 4.78624C60.8963 4.04183 59.3449 3.66211 57.6004 3.66211C55.7425 3.66211 54.0283 4.10951 52.5033 4.99678C50.9783 5.88406 49.7561 7.1473 48.8744 8.75643C47.9927 10.3656 47.5462 12.2379 47.5462 14.3207C47.5462 16.4035 47.9889 18.2871 48.8593 19.9113C49.7296 21.5392 50.9518 22.8213 52.4882 23.7161C54.0245 24.6108 55.7916 25.0658 57.7404 25.0658C59.3676 25.0658 60.8585 24.765 62.1753 24.171C63.4998 23.5769 64.4874 22.8025 65.1193 21.8701L65.142 21.8362V13.5462H57.6648V16.4675L57.661 16.4637Z" fill="black"/>
<path d="M77.5574 10.5911C76.4525 9.94818 75.2454 9.62109 73.9664 9.62109C72.6874 9.62109 71.45 9.94818 70.3337 10.5911C69.2174 11.234 68.3168 12.1551 67.6508 13.3281C66.9848 14.5011 66.648 15.8508 66.648 17.3396C66.648 18.8285 66.9848 20.1819 67.6508 21.3512C68.3168 22.5242 69.2212 23.4453 70.3337 24.0882C71.4462 24.7311 72.6684 25.0582 73.9664 25.0582C75.2643 25.0582 76.4487 24.7311 77.5574 24.0882C78.6624 23.4453 79.5592 22.5242 80.2252 21.3512C80.8912 20.1782 81.228 18.8285 81.228 17.3396C81.228 15.8508 80.8912 14.5011 80.2252 13.3281C79.5592 12.1551 78.6624 11.234 77.5574 10.5911ZM73.9399 12.4859C75.0789 12.4859 76.0362 12.9221 76.7855 13.783C77.5385 14.6515 77.9245 15.8471 77.9245 17.3359C77.9245 18.8247 77.5461 20.024 76.8006 20.8888C76.0589 21.7497 75.0978 22.1858 73.9399 22.1858C72.782 22.1858 71.8435 21.7497 71.0943 20.8888C70.3412 20.0203 69.9553 18.8247 69.9553 17.3359C69.9553 15.8471 70.3375 14.6477 71.0943 13.783C71.8435 12.9221 72.8009 12.4859 73.9399 12.4859Z" fill="black"/>
<path d="M86.6997 3.18066H83.5325V24.7497H86.6997V3.18066Z" fill="black"/>
<path d="M100.16 11.7827C99.645 11.1248 99.0244 10.6097 98.3092 10.2488C97.4767 9.83148 96.5799 9.61718 95.6414 9.61718C94.4759 9.61718 93.371 9.92923 92.3607 10.5458C91.3503 11.1624 90.5254 12.0647 89.9162 13.2302C89.3069 14.3919 89.0004 15.7717 89.0004 17.3357C89.0004 18.8997 89.3069 20.3096 89.9162 21.4713C90.5254 22.6368 91.3465 23.5354 92.3607 24.1407C93.371 24.7497 94.4759 25.0543 95.6414 25.0543C96.6177 25.0543 97.5524 24.8249 98.4227 24.3663C99.1871 23.964 99.8304 23.3812 100.341 22.6293C100.379 23.0504 100.432 23.7158 100.5 24.6257L100.508 24.746H103.3V3.18066H100.163V11.7827H100.16ZM98.9714 13.7077C99.7585 14.4822 100.16 15.704 100.16 17.3395C100.16 18.9749 99.7585 20.2344 98.9714 21.0277C98.1843 21.821 97.2232 22.2195 96.1182 22.2195C95.0133 22.2195 94.0256 21.7947 93.3332 20.9525C92.6331 20.1028 92.2774 18.8885 92.2774 17.3395C92.2774 15.7905 92.6331 14.6137 93.3332 13.7829C94.0256 12.9595 94.9641 12.5422 96.122 12.5422C97.2799 12.5422 98.1843 12.9332 98.9752 13.7077H98.9714Z" fill="black"/>
<path d="M116.832 15.5541L109.495 3.99316H106.751V24.7502H109.892V10.1703L115.829 19.4039H117.695L123.575 10.2304V24.7502H126.773V3.99316H124.173L116.832 15.5541Z" fill="black"/>
<path d="M136.165 9.61982C134.795 9.61982 133.558 9.93563 132.49 10.5635C131.42 11.1914 130.633 12.0373 130.156 13.0862L130.107 13.1952L132.468 14.5525L132.532 14.4359C132.914 13.7667 133.387 13.2516 133.94 12.8982C134.488 12.5486 135.181 12.3719 135.998 12.3719C137.005 12.3719 137.765 12.6727 138.265 13.2629C138.753 13.8457 139.007 14.763 139.022 15.9924C137.981 15.7368 136.956 15.6089 135.968 15.6089C134.106 15.6089 132.555 16.0413 131.355 16.8947C130.141 17.7557 129.524 18.94 129.524 20.4175C129.524 21.395 129.777 22.241 130.281 22.929C130.78 23.617 131.457 24.1509 132.294 24.5118C133.126 24.8727 134.05 25.0532 135.037 25.0532C136.929 25.0532 138.356 24.4215 139.29 23.1771C139.328 23.5268 139.359 24.0117 139.389 24.6171V24.7411H142.159V15.7067C142.159 13.7554 141.599 12.2365 140.498 11.1876C139.396 10.1424 137.94 9.6123 136.165 9.6123V9.61982ZM137.97 21.6206C137.266 22.1846 136.399 22.4741 135.404 22.4741C134.613 22.4741 133.966 22.2823 133.486 21.8988C133.009 21.5191 132.774 21.0191 132.774 20.3649C132.774 19.6393 133.058 19.0866 133.648 18.6806C134.243 18.267 135.098 18.0602 136.195 18.0602C137.001 18.0602 137.951 18.1918 139.022 18.4512V19.2708C139.022 20.2709 138.67 21.0604 137.97 21.6206Z" fill="black"/>
<path d="M156.58 11.2039C155.619 10.155 154.313 9.62109 152.705 9.62109C151.634 9.62109 150.669 9.85795 149.837 10.3241C149.11 10.7302 148.505 11.3129 148.032 12.0573C147.979 11.4784 147.933 10.8167 147.903 10.0835V9.95946H145.076V24.7537H148.244V16.6704C148.244 15.3508 148.603 14.3206 149.318 13.6138C150.033 12.907 150.904 12.5461 151.918 12.5461C152.932 12.5461 153.636 12.8845 154.12 13.58C154.608 14.2831 154.858 15.3019 154.858 16.614V24.7537H158.025V15.7456C158.025 13.7793 157.541 12.2528 156.584 11.2039H156.58Z" fill="black"/>
<path d="M17.3746 38.3538C16.672 38.4736 15.9538 38.5361 15.2303 38.5361C11.099 38.5361 7.23504 36.5619 4.35151 32.9781C1.54662 29.4933 0 24.8834 0 19.9974C0 15.1114 1.54662 10.5014 4.34627 7.02184C7.23504 3.43807 11.099 1.46387 15.2303 1.46387C19.3616 1.46387 23.2255 3.43807 26.1091 7.02184C26.7749 7.84485 27.3673 8.73559 27.8864 9.67841H34.0152C31.7083 5.57895 28.117 2.89112 23.624 1.57326C24.1692 1.50033 24.7197 1.46387 25.2754 1.46387C29.4068 1.46387 33.2707 3.43807 36.1542 7.02184C37.6432 8.86581 38.7756 11.0327 39.5096 13.3872H25.3384C23.451 8.70954 19.629 5.50603 15.225 5.50603C8.95991 5.50603 3.85869 12.0068 3.85869 20.0026C3.85869 27.0868 7.2298 36.1504 17.3693 38.3538H17.3746Z" fill="url(#paint0_linear_3409_276)"/>
<path d="M40.3483 17.3505H20.1111V27.5288H24.9345C24.0747 29.3259 22.916 30.8626 21.5529 32.0346C27.0473 32.6284 29.1759 27.7216 29.978 24.4243H23.7496V21.0593H36.6888C36.2641 28.5602 31.2625 34.4932 25.2753 34.4932C19.288 34.4932 13.9089 27.9924 13.9089 19.9967C13.9089 15.1315 15.7963 10.8237 18.6851 8.19313C15.1619 7.26073 11.4186 10.1621 10.3071 16.5692C10.1341 17.6891 10.0502 18.8351 10.0502 19.9967C10.0502 24.8827 11.5969 29.4926 14.3965 32.9774C17.28 36.5612 21.144 38.5354 25.2753 38.5354C29.4066 38.5354 33.2705 36.5612 36.154 32.9774C38.9589 29.4926 40.5003 24.8827 40.5003 19.9967C40.5003 19.1007 40.4479 18.2204 40.3483 17.3505Z" fill="#3333FF"/>
</g>
<defs>
<linearGradient id="paint0_linear_3409_276" x1="24.4733" y1="1.77641" x2="8.16725" y2="47.0682" gradientUnits="userSpaceOnUse">
<stop stop-color="#00FFFF"/>
<stop offset="0.32" stop-color="#10BEFF"/>
<stop offset="1" stop-color="#3333FF"/>
</linearGradient>
<clipPath id="clip0_3409_276">
<rect width="162" height="39" fill="white" transform="translate(0 0.5)"/>
</clipPath>
</defs>
</svg>
