<svg width="66" height="54" viewBox="0 0 66 54" fill="none" xmlns="http://www.w3.org/2000/svg">
<path fill-rule="evenodd" clip-rule="evenodd" d="M7.09304 18.0497C7.09304 23.2341 10.4337 26.9766 15.1234 26.9766C16.055 26.9766 16.9544 26.8146 17.7735 26.523C16.2316 25.7777 15.1556 24.1738 15.1556 22.3268C15.1556 19.767 17.2114 17.6771 19.749 17.6771C21.0981 17.6771 22.3187 18.2603 23.1539 19.2C23.202 18.8273 23.2181 18.4385 23.2181 18.0497C23.2181 12.9139 19.749 9.18759 15.1234 9.18759C10.4337 9.18759 7.09304 12.9139 7.09304 18.0497ZM0.154667 18.0497C0.154667 9.47927 6.51475 2.70714 15.1233 2.70714C23.7962 2.70714 30.1563 9.47927 30.1563 18.0497C30.1563 26.685 23.7962 33.441 15.1233 33.441C6.38626 33.441 0.154667 26.685 0.154667 18.0497ZM58.9175 18.0497C58.9175 12.9139 55.4484 9.18759 50.8229 9.18759C46.1331 9.18759 42.7764 12.9139 42.7764 18.0497C42.7764 23.2341 46.1331 26.9766 50.8229 26.9766C51.7544 26.9766 52.6538 26.8146 53.4729 26.523C51.915 25.7615 50.855 24.1738 50.855 22.3268C50.855 19.767 52.9108 17.6771 55.4484 17.6771C56.7975 17.6771 58.0181 18.2603 58.8533 19.2C58.9015 18.8273 58.9175 18.4385 58.9175 18.0497ZM65.8561 18.0497C65.8561 26.685 59.4961 33.441 50.8232 33.441C42.0861 33.441 35.8546 26.685 35.8546 18.0497C35.8546 9.47927 42.1986 2.70714 50.8232 2.70714C59.4961 2.70714 65.8561 9.47927 65.8561 18.0497ZM26.3254 2.61639C26.8457 4.67071 28.9192 5.9101 30.9541 5.38518C32.9906 4.85864 34.2193 2.76868 33.6973 0.714355L26.3254 2.61639ZM23.221 37.9108H30.1592C30.1592 46.5298 23.7992 53.2858 15.1263 53.2858C6.38926 53.2858 0.141602 46.5298 0.141602 37.9108H7.07987C7.07987 43.079 10.4366 46.8053 15.1263 46.8053C19.7518 46.8053 23.221 43.079 23.221 37.9108ZM65.8562 41.1494V46.5607C65.8562 48.1387 64.8829 49.1869 63.1965 49.1869C61.788 49.1869 61.0283 48.3979 60.7601 47.395L62.0112 47.1358C62.1237 47.6867 62.4931 48.0253 63.1965 48.0253C64.0124 48.0253 64.5151 47.5182 64.5151 46.572V45.9742L64.5039 45.9402C64.1232 46.4019 63.6655 46.7178 62.8159 46.7178C61.5985 46.7178 60.7826 45.9969 60.7826 44.3508V41.1494H62.1237V44.1256C62.1237 45.1398 62.5702 45.4557 63.2415 45.4557C63.9675 45.4557 64.5151 44.9713 64.5151 44.0235V41.1494H65.8562ZM57.0369 42.107C56.1311 42.107 55.6284 42.7275 55.5063 43.369H58.4775C58.4438 42.862 57.9973 42.107 57.0369 42.107ZM55.4937 44.4076C55.5499 45.1172 56.1538 45.8171 57.0371 45.8171C57.8177 45.8171 58.2658 45.3424 58.3991 44.96L59.5282 45.31C59.2038 46.2108 58.3991 46.9333 57.0371 46.9333C55.4391 46.9333 54.2088 45.6923 54.2088 43.9572C54.2088 42.2544 55.4391 40.9923 57.0259 40.9923C58.6464 40.9923 59.6615 42.175 59.6615 43.8891V44.4076H55.4937ZM48.1169 41.1495H49.2235L49.4146 41.8251C49.7599 41.3633 50.2867 40.9923 51.1122 40.9923C52.3746 40.9923 53.1134 41.7246 53.1134 43.369V46.7746H51.7723V43.5505C51.7723 42.5574 51.313 42.2431 50.6882 42.2431C50.0056 42.2431 49.4579 42.7275 49.4579 43.6866V46.7746H48.1169V41.1495ZM45.6786 43.9571C45.6786 42.964 45.0089 42.243 44.1143 42.243C43.2101 42.243 42.5612 42.964 42.5612 43.9571C42.5612 44.96 43.2101 45.681 44.1143 45.681C45.0089 45.681 45.6786 44.96 45.6786 43.9571ZM41.2204 43.9572C41.2204 42.2998 42.4507 40.9923 44.1146 40.9923C45.7913 40.9923 47.02 42.2998 47.02 43.9572C47.02 45.6243 45.7913 46.9333 44.1146 46.9333C42.4282 46.9333 41.2204 45.6243 41.2204 43.9572ZM32.0206 41.1495H33.1272L33.3055 41.8137C33.6411 41.3633 34.2322 40.9923 35.0272 40.9923C35.8656 40.9923 36.312 41.3974 36.5353 41.8364C36.8822 41.386 37.4636 40.9923 38.3229 40.9923C39.362 40.9923 40.1217 41.6112 40.1217 43.0547V46.7746H38.7806V43.4274C38.7806 42.5703 38.4128 42.2431 37.8314 42.2431C37.2163 42.2431 36.7473 42.6935 36.7473 43.5845V46.7746H35.4062V43.4274C35.4062 42.5703 35.0047 42.2431 34.4458 42.2431C33.8419 42.2431 33.3617 42.6821 33.3617 43.5845V46.7746H32.0206V41.1495Z" fill="black"/>
</svg>
