<?xml version="1.0" encoding="UTF-8"?>
<!DOCTYPE svg PUBLIC "-//W3C//DTD SVG 1.1//EN" "http://www.w3.org/Graphics/SVG/1.1/DTD/svg11.dtd">
<!-- Creator: CorelDRAW 2018 (64-Bit) -->
<svg xmlns="http://www.w3.org/2000/svg" xml:space="preserve" width="12.4357in" height="8.83117in" version="1.1" style="shape-rendering:geometricPrecision; text-rendering:geometricPrecision; image-rendering:optimizeQuality; fill-rule:evenodd; clip-rule:evenodd"
viewBox="0 0 12435.68 8831.18"
 xmlns:xlink="http://www.w3.org/1999/xlink">
 <defs>
  <style type="text/css">
   <![CDATA[
    .fil4 {fill:#005EC2}
    .fil0 {fill:#FF7200}
    .fil5 {fill:#4B4B4D;fill-rule:nonzero}
    .fil1 {fill:#D43264;fill-rule:nonzero}
    .fil3 {fill:#005EC2;fill-rule:nonzero}
    .fil2 {fill:#FF7200;fill-rule:nonzero}
   ]]>
  </style>
 </defs>
 <g id="Layer_x0020_2">
  <metadata id="CorelCorpID_0Corel-Layer"/>
  <g id="_3065265306384">
   <g>
    <polygon class="fil0" points="157.11,1612.1 -0,2219.14 3128.04,862.23 "/>
    <polygon class="fil1" points="148.95,3317.09 148.95,3710.23 1171.06,3710.23 1171.06,2387.88 "/>
    <polygon class="fil2" points="148.95,3318.5 148.95,3710.23 984.98,3710.23 984.98,2628.62 "/>
    <path class="fil3" d="M7978.08 661.17c60.1,-16.38 174.86,-32.78 344.25,-32.78 415.28,0 650.24,202.17 650.24,540.95 0,377.04 -273.22,601.08 -715.82,601.08 -120.21,0 -207.65,-5.46 -278.67,-21.86l0 -1087.39zm-825.1 3049.06l825.1 0 0 -1316.88c76.49,10.93 174.86,16.39 284.14,16.39 491.78,0 912.53,-120.21 1196.67,-387.97 218.58,-207.65 338.78,-513.64 338.78,-874.28 0,-360.63 -158.46,-666.63 -393.43,-852.41 -245.89,-196.72 -611.99,-295.08 -1125.63,-295.08 -508.18,0 -868.82,32.79 -1125.63,76.5l0 3633.73z"/>
    <polygon class="fil3" points="12179.53,1475.34 10824.39,1475.34 10824.39,710.36 12261.48,710.36 12261.48,27.32 9988.36,27.32 9988.36,3710.23 12337.99,3710.23 12337.99,3027.2 10824.39,3027.2 10824.39,2152.91 12179.53,2152.91 "/>
    <path class="fil3" d="M148.95 27.32l0 2038.62 510.41 -206.78 2471.42 -1001.24c-258.09,212.97 -516.19,425.95 -774.28,638.92l0 2213.38 830.57 0 0 -3682.91 -830.57 0c0,245.43 0,490.87 0,736.31 0,131.72 -65.06,307.27 -361.63,363.43l-1009.88 191.28 0 -1291.02 -836.03 0z"/>
    <path class="fil4" d="M5152.13 65.43c1050.5,0 1902.1,851.6 1902.1,1902.1 0,1050.5 -851.6,1902.1 -1902.1,1902.1 -1050.5,0 -1902.1,-851.6 -1902.1,-1902.1 0,-1050.5 851.6,-1902.1 1902.1,-1902.1zm0 926.11c539.02,0 975.99,436.97 975.99,975.99 0,539.02 -436.98,975.99 -975.99,975.99 -539.01,0 -975.99,-436.98 -975.99,-975.99 0,-539.02 436.98,-975.99 975.99,-975.99z"/>
   </g>
   <path class="fil5" d="M258.28 4789.56l0 -464.58 175.4 0c30.82,0 54.39,1.52 70.73,4.43 22.82,3.79 41.96,11.03 57.43,21.63 15.46,10.71 27.9,25.63 37.31,44.78 9.41,19.14 14.06,40.22 14.06,63.26 0,39.37 -12.55,72.78 -37.74,100.03 -25.09,27.36 -70.62,40.98 -136.36,40.98l-119.17 0 0 189.47 -61.64 0zm61.64 -243.97l120.04 0c39.8,0 67.91,-7.35 84.67,-22.17 16.65,-14.82 24.98,-35.58 24.98,-62.51 0,-19.35 -4.87,-36.01 -14.71,-49.85 -9.83,-13.84 -22.82,-23.03 -38.82,-27.46 -10.39,-2.7 -29.52,-4.11 -57.32,-4.11l-118.85 0 0 166.11zm709.03 243.97l178.22 -464.58 67.59 0 189.14 464.58 -69.97 0 -53.74 -140.8 -195.63 0 -50.39 140.8 -65.22 0zm133.66 -190.76l158.32 0 -48.44 -128.8c-14.6,-39.15 -25.63,-71.48 -33.31,-97 -6.38,30.28 -14.92,60.02 -25.63,89.43l-50.94 136.37zm869.85 190.76l0 -196.82 -179.09 -267.76 73.97 0 91.81 140.58c17.09,26.06 32.98,52.13 47.48,78.19 14.17,-24.33 31.36,-51.58 51.37,-81.86l89.97 -136.91 71.7 0 -185.57 267.76 0 196.82 -61.64 0zm737.48 0l0 -464.58 92.14 0 109.87 328.86c10.17,30.6 17.52,53.52 22.17,68.78 5.3,-16.87 13.62,-41.74 24.87,-74.51l111.82 -323.12 82.3 0 0 464.58 -59.05 0 0 -388.66 -135.61 388.66 -55.37 0 -134.09 -395.8 0 395.8 -59.05 0zm980.04 0l0 -464.58 335.46 0 0 54.5 -273.82 0 0 142.75 256.29 0 0 54.5 -256.29 0 0 158.32 284.84 0 0 54.51 -346.48 0zm867.8 0l0 -464.58 63.15 0 243.75 364.65 0 -364.65 59.05 0 0 464.58 -63.16 0 -243.75 -364.65 0 364.65 -59.04 0zm1024.27 0l0 -410.08 -153.13 0 0 -54.5 367.89 0 0 54.5 -153.13 0 0 410.08 -61.64 0zm1043.96 -149.24l57.75 -5.19c2.7,23.36 9.08,42.5 19.14,57.54 10.06,14.92 25.62,27.04 46.71,36.33 21.09,9.19 44.88,13.85 71.27,13.85 23.46,0 44.12,-3.46 62.07,-10.49 17.95,-7.03 31.25,-16.65 40.02,-28.87 8.76,-12.22 13.19,-25.52 13.19,-39.8 0,-14.49 -4.22,-27.14 -12.65,-38.07 -8.43,-10.81 -22.38,-19.89 -41.85,-27.36 -12.43,-4.76 -40.02,-12.33 -82.73,-22.6 -42.72,-10.27 -72.56,-19.9 -89.65,-28.98 -22.17,-11.67 -38.61,-26.17 -49.43,-43.36 -10.92,-17.2 -16.33,-36.55 -16.33,-57.86 0,-23.57 6.7,-45.52 20,-65.85 13.31,-20.44 32.66,-35.91 58.3,-46.5 25.52,-10.6 53.96,-15.9 85.21,-15.9 34.39,0 64.78,5.52 91.06,16.65 26.27,11.03 46.5,27.36 60.66,48.99 14.17,21.52 21.74,45.96 22.82,73.21l-59.05 4.54c-3.14,-29.3 -13.84,-51.47 -32.11,-66.39 -18.28,-15.04 -45.31,-22.49 -81,-22.49 -37.2,0 -64.34,6.81 -81.32,20.44 -16.98,13.62 -25.52,30.06 -25.52,49.31 0,16.66 6.06,30.39 18.06,41.2 11.9,10.71 42.72,21.84 92.68,33.09 49.96,11.36 84.24,21.19 102.85,29.63 26.93,12.44 46.94,28.12 59.8,47.26 12.87,19.03 19.25,40.98 19.25,65.85 0,24.77 -7.03,47.91 -21.19,69.76 -14.17,21.84 -34.39,38.82 -60.89,50.93 -26.5,12.11 -56.24,18.17 -89.44,18.17 -41.96,0 -77.1,-6.16 -105.44,-18.38 -28.44,-12.22 -50.61,-30.6 -66.72,-55.26 -16.22,-24.55 -24.66,-52.34 -25.52,-83.38zm891.15 149.24l0 -464.58 335.46 0 0 54.5 -273.82 0 0 142.75 256.29 0 0 54.5 -256.29 0 0 158.32 284.84 0 0 54.51 -346.48 0zm869.74 0l0 -464.58 205.91 0c41.42,0 72.89,4.22 94.41,12.54 21.52,8.33 38.72,23.04 51.58,44.12 12.87,21.09 19.25,44.45 19.25,69.97 0,32.98 -10.71,60.78 -32.01,83.38 -21.3,22.59 -54.17,36.87 -98.73,43.04 16.33,7.78 28.66,15.57 37.09,23.15 17.95,16.44 34.93,37.09 50.83,61.85l80.35 126.53 -76.78 0 -61.43 -96.68c-17.84,-28.01 -32.65,-49.32 -44.22,-64.13 -11.69,-14.81 -22.06,-25.09 -31.25,-31.04 -9.08,-5.84 -18.49,-9.94 -28.01,-12.32 -6.92,-1.41 -18.28,-2.17 -34.18,-2.17l-71.15 0 0 206.33 -61.65 0zm61.65 -259.54l131.93 0c28.12,0 49.96,-2.92 65.76,-8.76 15.79,-5.73 27.8,-15.04 35.9,-27.9 8.22,-12.76 12.33,-26.61 12.33,-41.63 0,-21.96 -7.89,-40.12 -23.79,-54.3 -15.9,-14.16 -40.99,-21.19 -75.27,-21.19l-146.85 0 0 153.78zm963.28 259.54l-179.51 -464.58 66.61 0 120.68 337.62c9.63,27.04 17.85,52.34 24.33,76.02 7.14,-25.42 15.46,-50.72 24.98,-76.02l125.23 -337.62 62.72 0 -181.14 464.58 -63.91 0zm747.75 0l0 -464.58 61.65 0 0 464.58 -61.65 0zm937.76 -162.97l61.64 15.57c-12.87,50.5 -36.02,88.89 -69.43,115.39 -33.42,26.5 -74.29,39.8 -122.63,39.8 -49.96,0 -90.63,-10.16 -121.99,-30.6 -31.36,-20.33 -55.15,-49.85 -71.48,-88.46 -16.33,-38.71 -24.55,-80.13 -24.55,-124.47 0,-48.34 9.19,-90.51 27.69,-126.53 18.49,-36.01 44.77,-63.37 78.84,-82.08 34.06,-18.7 71.59,-28.01 112.46,-28.01 46.5,0 85.54,11.79 117.11,35.48 31.69,23.68 53.74,56.88 66.19,99.7l-60.35 14.28c-10.71,-33.74 -26.39,-58.4 -46.83,-73.76 -20.44,-15.46 -46.18,-23.14 -77.21,-23.14 -35.58,0 -65.42,8.54 -89.33,25.63 -23.89,17.09 -40.77,40.12 -50.39,68.88 -9.74,28.87 -14.6,58.61 -14.6,89.22 0,39.47 5.73,73.96 17.19,103.38 11.47,29.52 29.31,51.47 53.53,66.07 24.23,14.6 50.39,21.84 78.62,21.84 34.39,0 63.37,-9.94 87.16,-29.74 23.8,-19.89 39.91,-49.32 48.34,-88.46zm575.91 162.97l0 -464.58 335.46 0 0 54.5 -273.82 0 0 142.75 256.29 0 0 54.5 -256.29 0 0 158.32 284.84 0 0 54.51 -346.48 0z"/>
   <path class="fil3" d="M39.37 8831.18l1374.56 0c757.64,0 1385.38,-313.88 1385.38,-1039.03 0,-465.41 -248.93,-725.17 -746.8,-822.57l0 -21.65c411.29,-108.23 584.46,-454.58 584.46,-757.63 0,-692.69 -595.28,-876.69 -1331.27,-876.69l-1266.33 0 0 3517.57zm930.81 -2132.18l0 -671.05 313.87 0c303.06,0 443.76,86.59 443.76,303.06 0,216.47 -140.7,367.99 -443.76,367.99l-313.87 0zm0 1417.85l0 -768.46 378.82 0c367.99,0 541.15,108.23 541.15,367.99 0,259.76 -173.17,400.47 -541.15,400.47l-378.82 0zm3032.66 -752.23l59.53 -243.52c82.28,-336.6 173.17,-757.62 248.93,-1114.8l21.65 0c86.59,351.76 177.49,778.26 259.76,1114.8l59.53 243.52 -649.4 0zm990.33 1466.56l984.91 0 -1071.51 -3517.57 -1125.62 0 -1071.51 3517.57 952.45 0 173.17 -746.8 984.91 0 173.18 746.8zm1220.9 0l887.52 0 0 -1017.39c0,-432.93 -75.77,-941.62 -119.06,-1342.09l21.65 0 335.52 784.69 779.28 1574.79 952.44 0 0 -3517.57 -887.51 0 0 1017.39c0,432.69 75.76,963.27 119.06,1342.08l-21.65 0 -335.52 -790.1 -779.28 -1569.38 -952.45 0 0 3517.57zm3158.62 0l930.81 0 0 -876.69 335.52 -476.22 779.28 1352.91 1017.39 0 -1255.5 -2088.89 1049.85 -1428.68 -1017.39 0 -887.51 1309.62 -21.64 0 0 -1309.62 -930.81 0 0 3517.57z"/>
  </g>
 </g>
</svg>
