<svg width="149" height="58" viewBox="0 0 149 58" fill="none" xmlns="http://www.w3.org/2000/svg">
<g clip-path="url(#clip0_2001_724)">
<path d="M34.8484 8.21604V33.2254H38.7001V23.3947C39.7723 25.2934 41.896 26.2215 44.2071 26.2215C49.1728 26.2215 52.4727 22.5401 52.4727 17.1395C52.4727 11.7494 49.3186 7.84669 44.5818 7.84669C42.1875 7.84669 39.7306 9.26005 38.5543 11.3381V8.2159H34.8483L34.8484 8.21604ZM43.5825 22.7618C40.9382 22.7618 38.5545 20.5679 38.5545 17.1397C38.5545 13.7221 41.0113 11.3804 43.5825 11.3804C46.3412 11.3804 48.621 13.7537 48.621 17.1397C48.621 20.5363 46.3827 22.7618 43.5825 22.7618ZM67.2002 19.1544C66.6484 21.5699 64.9932 22.8779 62.4948 22.8779C61.0998 22.8779 59.8922 22.4244 58.8304 21.57C57.7999 20.684 57.2793 19.3761 57.2793 17.6673H69.5841C69.6986 16.9922 69.7715 16.3276 69.7715 15.621C69.7715 10.8216 66.461 7.84697 61.9119 7.84697C56.811 7.84697 53.4276 11.8657 53.4276 16.9182C53.4276 22.6143 57.1025 26.2217 62.4637 26.2217C66.5756 26.2217 69.2926 24.1436 70.5004 20.4518L67.2003 19.1544H67.2002ZM57.2793 15.0618C57.6125 12.6778 59.4862 11.1905 61.8702 11.1905C64.2229 11.1905 65.951 12.5301 65.951 14.7241L65.9094 15.0618H57.2794H57.2793ZM80.4183 22.8778C77.6284 22.8778 74.9113 20.5361 74.9113 16.9181C74.9113 13.2052 77.5139 11.1905 80.0539 11.1905C82.5835 11.1905 84.4158 12.7938 84.8218 15.431L88.3092 14.3128C87.5805 10.2939 84.3429 7.84683 80.0539 7.84683C75.2444 7.84683 71.2365 11.6018 71.2365 16.9181C71.2365 22.498 74.9425 26.2215 80.6057 26.2215C84.9676 26.2215 88.3508 23.6583 89.2356 19.1542L85.7379 17.8569C85.3424 20.7892 83.6455 22.8778 80.4183 22.8778ZM90.2218 20.8315C90.2218 24.2174 93.0845 26.2217 95.9475 26.2217C99.0288 26.2217 101.017 24.8505 101.788 22.8779V25.8525H105.462V14.872C105.462 10.4101 102.704 7.84697 97.7484 7.84697C93.4908 7.84697 90.805 10.1149 90.0346 13.5745L93.5221 14.5028C93.928 12.3826 95.4375 11.0009 97.7486 11.0009C100.06 11.0009 101.788 12.3405 101.788 14.6927V15.9902L99.9555 15.5471C98.9562 15.2835 97.9361 15.178 96.8637 15.178C93.012 15.178 90.2221 16.9923 90.2221 20.8317L90.2218 20.8315ZM101.787 19.1544C101.787 21.4961 100.028 22.8779 97.488 22.8779C95.2913 22.8779 94.2608 21.8337 94.2608 20.4518C94.2608 18.8592 95.5412 18.1102 97.488 18.1102C98.1856 18.1102 99.1432 18.2579 100.393 18.5953L101.787 18.9645V19.1544Z" fill="#1C9FF3"/>
<path d="M112.33 25.8523V16.032C112.33 13.0153 114.1 11.1905 116.442 11.1905C118.649 11.1905 120.044 12.8254 120.044 15.6524V25.8523H123.896V14.3128C123.896 10.2939 121.439 7.84682 117.806 7.84682C115.495 7.84682 113.548 8.73284 112.33 10.7791V8.21603H108.478V25.8523H112.33H112.33Z" fill="#1C9FF3"/>
<path d="M122.811 6.18297H123.369V3.86077H124.332V3.34045H121.838V3.86077H122.811V6.18297H122.811ZM124.621 6.18297H125.182V3.72262L125.93 6.18297H126.691L127.439 3.72262V6.18297H128V3.34045H126.992L126.31 5.68507L125.629 3.34045H124.621V6.18297Z" fill="#1C9FF3"/>
<path d="M17.6311 20.9761C16.2872 22.1485 14.3582 22.5085 12.7174 21.895C12.5849 21.8448 12.48 21.7902 12.4031 21.7422C12.6122 21.4372 13.2709 20.8653 14.6383 20.2759C16.0331 19.6717 17.3449 19.536 18.5676 19.8683C18.2988 20.2956 17.985 20.6668 17.6309 20.9759L17.6311 20.9761ZM26.9427 21.535C26.7673 21.1778 26.4841 20.8875 26.2002 20.6101C25.2554 19.6879 24.2482 18.8317 23.1883 18.0489C23.7836 13.4796 22.5692 8.69379 19.8718 4.98255C18.4255 2.99283 16.439 1.27454 14.1046 0.476037C13.0797 0.125601 11.6844 -0.204848 10.634 0.158012C9.47531 0.558683 8.34512 1.13045 7.34435 1.84915C6.06209 2.76947 4.95243 3.92975 4.04548 5.22724C2.42164 7.55011 1.43006 10.2761 0.803656 13.0509C-0.557767 19.0825 -0.225375 25.5487 2.08271 31.2766C3.21423 34.0828 4.88046 36.7763 7.37127 38.4558C9.86155 40.1355 13.2897 40.6086 15.8574 39.0527C16.2583 38.8099 16.6423 38.5123 16.8824 38.1057C17.5507 36.9706 16.5471 35.2634 15.2439 35.3184C14.6003 35.3451 14.025 35.7103 13.4142 35.9179C11.9315 36.4224 10.2471 35.9608 8.98978 35.0182C7.73258 34.0753 6.84843 32.7078 6.14966 31.2898C4.3195 27.5734 3.60847 23.3539 3.72082 19.2019C3.82104 15.5159 4.57352 11.7995 6.31718 8.56266C6.9909 7.31284 7.82641 6.12204 8.95247 5.26951C10.0784 4.41753 11.5288 3.93299 12.9104 4.19552C14.3976 4.47708 15.6162 5.5635 16.5599 6.7616C18.6521 9.41735 19.7663 12.8458 19.6415 16.2419C16.6907 15.5688 13.468 16.2335 11.0109 18.0212C9.64031 19.0185 8.43135 20.5786 8.64686 22.2752C8.88276 24.1334 10.7404 25.3666 12.5505 25.7497C16.0557 26.4913 19.9338 24.8044 21.817 21.7187C23.0401 22.4473 23.8116 24.0707 25.2284 24.1579C26.4673 24.2341 27.4899 22.697 26.9552 21.5617C26.9515 21.553 26.947 21.5442 26.9428 21.5349L26.9427 21.535Z" fill="#1C9FF3"/>
</g>
<path d="M5.43 51.07C5.43 51.65 5.23 52.1333 4.83 52.52C4.43667 52.9 3.83333 53.09 3.02 53.09H1.68V56H0.77V49.03H3.02C3.80667 49.03 4.40333 49.22 4.81 49.6C5.22333 49.98 5.43 50.47 5.43 51.07ZM3.02 52.34C3.52667 52.34 3.9 52.23 4.14 52.01C4.38 51.79 4.5 51.4767 4.5 51.07C4.5 50.21 4.00667 49.78 3.02 49.78H1.68V52.34H3.02ZM11.561 53.05C11.561 53.2233 11.551 53.4067 11.531 53.6H7.15102C7.18435 54.14 7.36768 54.5633 7.70102 54.87C8.04102 55.17 8.45102 55.32 8.93102 55.32C9.32435 55.32 9.65102 55.23 9.91102 55.05C10.1777 54.8633 10.3643 54.6167 10.471 54.31H11.451C11.3043 54.8367 11.011 55.2667 10.571 55.6C10.131 55.9267 9.58435 56.09 8.93102 56.09C8.41102 56.09 7.94435 55.9733 7.53102 55.74C7.12435 55.5067 6.80435 55.1767 6.57102 54.75C6.33768 54.3167 6.22102 53.8167 6.22102 53.25C6.22102 52.6833 6.33435 52.1867 6.56102 51.76C6.78768 51.3333 7.10435 51.0067 7.51102 50.78C7.92435 50.5467 8.39768 50.43 8.93102 50.43C9.45102 50.43 9.91102 50.5433 10.311 50.77C10.711 50.9967 11.0177 51.31 11.231 51.71C11.451 52.1033 11.561 52.55 11.561 53.05ZM10.621 52.86C10.621 52.5133 10.5443 52.2167 10.391 51.97C10.2377 51.7167 10.0277 51.5267 9.76102 51.4C9.50102 51.2667 9.21102 51.2 8.89102 51.2C8.43102 51.2 8.03768 51.3467 7.71102 51.64C7.39102 51.9333 7.20768 52.34 7.16102 52.86H10.621ZM12.4222 53.25C12.4222 52.6833 12.5355 52.19 12.7622 51.77C12.9889 51.3433 13.3022 51.0133 13.7022 50.78C14.1089 50.5467 14.5722 50.43 15.0922 50.43C15.7655 50.43 16.3189 50.5933 16.7522 50.92C17.1922 51.2467 17.4822 51.7 17.6222 52.28H16.6422C16.5489 51.9467 16.3655 51.6833 16.0922 51.49C15.8255 51.2967 15.4922 51.2 15.0922 51.2C14.5722 51.2 14.1522 51.38 13.8322 51.74C13.5122 52.0933 13.3522 52.5967 13.3522 53.25C13.3522 53.91 13.5122 54.42 13.8322 54.78C14.1522 55.14 14.5722 55.32 15.0922 55.32C15.4922 55.32 15.8255 55.2267 16.0922 55.04C16.3589 54.8533 16.5422 54.5867 16.6422 54.24H17.6222C17.4755 54.8 17.1822 55.25 16.7422 55.59C16.3022 55.9233 15.7522 56.09 15.0922 56.09C14.5722 56.09 14.1089 55.9733 13.7022 55.74C13.3022 55.5067 12.9889 55.1767 12.7622 54.75C12.5355 54.3233 12.4222 53.8233 12.4222 53.25ZM18.4964 53.24C18.4964 52.68 18.6097 52.19 18.8364 51.77C19.0631 51.3433 19.3731 51.0133 19.7664 50.78C20.1664 50.5467 20.6097 50.43 21.0964 50.43C21.5764 50.43 21.9931 50.5333 22.3464 50.74C22.6997 50.9467 22.9631 51.2067 23.1364 51.52V50.52H24.0564V56H23.1364V54.98C22.9564 55.3 22.6864 55.5667 22.3264 55.78C21.9731 55.9867 21.5597 56.09 21.0864 56.09C20.5997 56.09 20.1597 55.97 19.7664 55.73C19.3731 55.49 19.0631 55.1533 18.8364 54.72C18.6097 54.2867 18.4964 53.7933 18.4964 53.24ZM23.1364 53.25C23.1364 52.8367 23.0531 52.4767 22.8864 52.17C22.7197 51.8633 22.4931 51.63 22.2064 51.47C21.9264 51.3033 21.6164 51.22 21.2764 51.22C20.9364 51.22 20.6264 51.3 20.3464 51.46C20.0664 51.62 19.8431 51.8533 19.6764 52.16C19.5097 52.4667 19.4264 52.8267 19.4264 53.24C19.4264 53.66 19.5097 54.0267 19.6764 54.34C19.8431 54.6467 20.0664 54.8833 20.3464 55.05C20.6264 55.21 20.9364 55.29 21.2764 55.29C21.6164 55.29 21.9264 55.21 22.2064 55.05C22.4931 54.8833 22.7197 54.6467 22.8864 54.34C23.0531 54.0267 23.1364 53.6633 23.1364 53.25ZM28.2642 50.42C28.9309 50.42 29.4709 50.6233 29.8842 51.03C30.2976 51.43 30.5042 52.01 30.5042 52.77V56H29.6042V52.9C29.6042 52.3533 29.4676 51.9367 29.1942 51.65C28.9209 51.3567 28.5476 51.21 28.0742 51.21C27.5942 51.21 27.2109 51.36 26.9242 51.66C26.6442 51.96 26.5042 52.3967 26.5042 52.97V56H25.5942V50.52H26.5042V51.3C26.6842 51.02 26.9276 50.8033 27.2342 50.65C27.5476 50.4967 27.8909 50.42 28.2642 50.42ZM33.1007 51.27V54.5C33.1007 54.7667 33.1574 54.9567 33.2707 55.07C33.384 55.1767 33.5807 55.23 33.8607 55.23H34.5307V56H33.7107C33.204 56 32.824 55.8833 32.5707 55.65C32.3174 55.4167 32.1907 55.0333 32.1907 54.5V51.27H31.4807V50.52H32.1907V49.14H33.1007V50.52H34.5307V51.27H33.1007ZM36.5433 51.41C36.7033 51.0967 36.9299 50.8533 37.2233 50.68C37.5233 50.5067 37.8866 50.42 38.3133 50.42V51.36H38.0733C37.0533 51.36 36.5433 51.9133 36.5433 53.02V56H35.6333V50.52H36.5433V51.41ZM44.2238 50.52V56H43.3138V55.19C43.1404 55.47 42.8971 55.69 42.5838 55.85C42.2771 56.0033 41.9371 56.08 41.5638 56.08C41.1371 56.08 40.7538 55.9933 40.4138 55.82C40.0738 55.64 39.8038 55.3733 39.6038 55.02C39.4104 54.6667 39.3138 54.2367 39.3138 53.73V50.52H40.2138V53.61C40.2138 54.15 40.3504 54.5667 40.6238 54.86C40.8971 55.1467 41.2704 55.29 41.7438 55.29C42.2304 55.29 42.6138 55.14 42.8938 54.84C43.1738 54.54 43.3138 54.1033 43.3138 53.53V50.52H44.2238ZM47.7002 56.09C47.2802 56.09 46.9036 56.02 46.5702 55.88C46.2369 55.7333 45.9736 55.5333 45.7802 55.28C45.5869 55.02 45.4802 54.7233 45.4602 54.39H46.4002C46.4269 54.6633 46.5536 54.8867 46.7802 55.06C47.0136 55.2333 47.3169 55.32 47.6902 55.32C48.0369 55.32 48.3102 55.2433 48.5102 55.09C48.7102 54.9367 48.8102 54.7433 48.8102 54.51C48.8102 54.27 48.7036 54.0933 48.4902 53.98C48.2769 53.86 47.9469 53.7433 47.5002 53.63C47.0936 53.5233 46.7602 53.4167 46.5002 53.31C46.2469 53.1967 46.0269 53.0333 45.8402 52.82C45.6602 52.6 45.5702 52.3133 45.5702 51.96C45.5702 51.68 45.6536 51.4233 45.8202 51.19C45.9869 50.9567 46.2236 50.7733 46.5302 50.64C46.8369 50.5 47.1869 50.43 47.5802 50.43C48.1869 50.43 48.6769 50.5833 49.0502 50.89C49.4236 51.1967 49.6236 51.6167 49.6502 52.15H48.7402C48.7202 51.8633 48.6036 51.6333 48.3902 51.46C48.1836 51.2867 47.9036 51.2 47.5502 51.2C47.2236 51.2 46.9636 51.27 46.7702 51.41C46.5769 51.55 46.4802 51.7333 46.4802 51.96C46.4802 52.14 46.5369 52.29 46.6502 52.41C46.7702 52.5233 46.9169 52.6167 47.0902 52.69C47.2702 52.7567 47.5169 52.8333 47.8302 52.92C48.2236 53.0267 48.5436 53.1333 48.7902 53.24C49.0369 53.34 49.2469 53.4933 49.4202 53.7C49.6002 53.9067 49.6936 54.1767 49.7002 54.51C49.7002 54.81 49.6169 55.08 49.4502 55.32C49.2836 55.56 49.0469 55.75 48.7402 55.89C48.4402 56.0233 48.0936 56.09 47.7002 56.09ZM52.0948 51.27V54.5C52.0948 54.7667 52.1515 54.9567 52.2648 55.07C52.3782 55.1767 52.5748 55.23 52.8548 55.23H53.5248V56H52.7048C52.1982 56 51.8182 55.8833 51.5648 55.65C51.3115 55.4167 51.1848 55.0333 51.1848 54.5V51.27H50.4748V50.52H51.1848V49.14H52.0948V50.52H53.5248V51.27H52.0948ZM64.3634 49.08V56H63.4534V50.84L61.1534 56H60.5134L58.2034 50.83V56H57.2934V49.08H58.2734L60.8334 54.8L63.3934 49.08H64.3634ZM66.3767 49.63C66.2034 49.63 66.0567 49.57 65.9367 49.45C65.8167 49.33 65.7567 49.1833 65.7567 49.01C65.7567 48.8367 65.8167 48.69 65.9367 48.57C66.0567 48.45 66.2034 48.39 66.3767 48.39C66.5434 48.39 66.6834 48.45 66.7967 48.57C66.9167 48.69 66.9767 48.8367 66.9767 49.01C66.9767 49.1833 66.9167 49.33 66.7967 49.45C66.6834 49.57 66.5434 49.63 66.3767 49.63ZM66.8167 50.52V56H65.9067V50.52H66.8167ZM68.0277 53.25C68.0277 52.6833 68.141 52.19 68.3677 51.77C68.5943 51.3433 68.9077 51.0133 69.3077 50.78C69.7143 50.5467 70.1777 50.43 70.6977 50.43C71.371 50.43 71.9243 50.5933 72.3577 50.92C72.7977 51.2467 73.0877 51.7 73.2277 52.28H72.2477C72.1543 51.9467 71.971 51.6833 71.6977 51.49C71.431 51.2967 71.0977 51.2 70.6977 51.2C70.1777 51.2 69.7577 51.38 69.4377 51.74C69.1177 52.0933 68.9577 52.5967 68.9577 53.25C68.9577 53.91 69.1177 54.42 69.4377 54.78C69.7577 55.14 70.1777 55.32 70.6977 55.32C71.0977 55.32 71.431 55.2267 71.6977 55.04C71.9643 54.8533 72.1477 54.5867 72.2477 54.24H73.2277C73.081 54.8 72.7877 55.25 72.3477 55.59C71.9077 55.9233 71.3577 56.09 70.6977 56.09C70.1777 56.09 69.7143 55.9733 69.3077 55.74C68.9077 55.5067 68.5943 55.1767 68.3677 54.75C68.141 54.3233 68.0277 53.8233 68.0277 53.25ZM75.3519 51.41C75.5119 51.0967 75.7385 50.8533 76.0319 50.68C76.3319 50.5067 76.6952 50.42 77.1219 50.42V51.36H76.8819C75.8619 51.36 75.3519 51.9133 75.3519 53.02V56H74.4419V50.52H75.3519V51.41ZM80.5623 56.09C80.049 56.09 79.5823 55.9733 79.1623 55.74C78.749 55.5067 78.4223 55.1767 78.1823 54.75C77.949 54.3167 77.8323 53.8167 77.8323 53.25C77.8323 52.69 77.9523 52.1967 78.1923 51.77C78.439 51.3367 78.7723 51.0067 79.1923 50.78C79.6123 50.5467 80.0823 50.43 80.6023 50.43C81.1223 50.43 81.5923 50.5467 82.0123 50.78C82.4323 51.0067 82.7623 51.3333 83.0023 51.76C83.249 52.1867 83.3723 52.6833 83.3723 53.25C83.3723 53.8167 83.2457 54.3167 82.9923 54.75C82.7457 55.1767 82.409 55.5067 81.9823 55.74C81.5557 55.9733 81.0823 56.09 80.5623 56.09ZM80.5623 55.29C80.889 55.29 81.1957 55.2133 81.4823 55.06C81.769 54.9067 81.999 54.6767 82.1723 54.37C82.3523 54.0633 82.4423 53.69 82.4423 53.25C82.4423 52.81 82.3557 52.4367 82.1823 52.13C82.009 51.8233 81.7823 51.5967 81.5023 51.45C81.2223 51.2967 80.919 51.22 80.5923 51.22C80.259 51.22 79.9523 51.2967 79.6723 51.45C79.399 51.5967 79.179 51.8233 79.0123 52.13C78.8457 52.4367 78.7623 52.81 78.7623 53.25C78.7623 53.6967 78.8423 54.0733 79.0023 54.38C79.169 54.6867 79.389 54.9167 79.6623 55.07C79.9357 55.2167 80.2357 55.29 80.5623 55.29ZM86.7988 51.27H85.6488V56H84.7388V51.27H84.0288V50.52H84.7388V50.13C84.7388 49.5167 84.8955 49.07 85.2088 48.79C85.5288 48.5033 86.0388 48.36 86.7388 48.36V49.12C86.3388 49.12 86.0555 49.2 85.8888 49.36C85.7288 49.5133 85.6488 49.77 85.6488 50.13V50.52H86.7988V51.27ZM88.3298 49.63C88.1565 49.63 88.0098 49.57 87.8898 49.45C87.7698 49.33 87.7098 49.1833 87.7098 49.01C87.7098 48.8367 87.7698 48.69 87.8898 48.57C88.0098 48.45 88.1565 48.39 88.3298 48.39C88.4965 48.39 88.6365 48.45 88.7498 48.57C88.8698 48.69 88.9298 48.8367 88.9298 49.01C88.9298 49.1833 88.8698 49.33 88.7498 49.45C88.6365 49.57 88.4965 49.63 88.3298 49.63ZM88.7698 50.52V56H87.8598V50.52H88.7698ZM92.9908 50.42C93.6574 50.42 94.1974 50.6233 94.6108 51.03C95.0241 51.43 95.2308 52.01 95.2308 52.77V56H94.3308V52.9C94.3308 52.3533 94.1941 51.9367 93.9208 51.65C93.6474 51.3567 93.2741 51.21 92.8008 51.21C92.3208 51.21 91.9374 51.36 91.6508 51.66C91.3708 51.96 91.2308 52.3967 91.2308 52.97V56H90.3208V50.52H91.2308V51.3C91.4108 51.02 91.6541 50.8033 91.9608 50.65C92.2741 50.4967 92.6174 50.42 92.9908 50.42ZM96.3773 53.24C96.3773 52.68 96.4906 52.19 96.7173 51.77C96.9439 51.3433 97.2539 51.0133 97.6473 50.78C98.0473 50.5467 98.4906 50.43 98.9773 50.43C99.4573 50.43 99.8739 50.5333 100.227 50.74C100.581 50.9467 100.844 51.2067 101.017 51.52V50.52H101.937V56H101.017V54.98C100.837 55.3 100.567 55.5667 100.207 55.78C99.8539 55.9867 99.4406 56.09 98.9673 56.09C98.4806 56.09 98.0406 55.97 97.6473 55.73C97.2539 55.49 96.9439 55.1533 96.7173 54.72C96.4906 54.2867 96.3773 53.7933 96.3773 53.24ZM101.017 53.25C101.017 52.8367 100.934 52.4767 100.767 52.17C100.601 51.8633 100.374 51.63 100.087 51.47C99.8073 51.3033 99.4973 51.22 99.1573 51.22C98.8173 51.22 98.5073 51.3 98.2273 51.46C97.9473 51.62 97.7239 51.8533 97.5573 52.16C97.3906 52.4667 97.3073 52.8267 97.3073 53.24C97.3073 53.66 97.3906 54.0267 97.5573 54.34C97.7239 54.6467 97.9473 54.8833 98.2273 55.05C98.5073 55.21 98.8173 55.29 99.1573 55.29C99.4973 55.29 99.8073 55.21 100.087 55.05C100.374 54.8833 100.601 54.6467 100.767 54.34C100.934 54.0267 101.017 53.6633 101.017 53.25ZM106.145 50.42C106.812 50.42 107.352 50.6233 107.765 51.03C108.178 51.43 108.385 52.01 108.385 52.77V56H107.485V52.9C107.485 52.3533 107.348 51.9367 107.075 51.65C106.802 51.3567 106.428 51.21 105.955 51.21C105.475 51.21 105.092 51.36 104.805 51.66C104.525 51.96 104.385 52.3967 104.385 52.97V56H103.475V50.52H104.385V51.3C104.565 51.02 104.808 50.8033 105.115 50.65C105.428 50.4967 105.772 50.42 106.145 50.42ZM109.532 53.25C109.532 52.6833 109.645 52.19 109.872 51.77C110.098 51.3433 110.412 51.0133 110.812 50.78C111.218 50.5467 111.682 50.43 112.202 50.43C112.875 50.43 113.428 50.5933 113.862 50.92C114.302 51.2467 114.592 51.7 114.732 52.28H113.752C113.658 51.9467 113.475 51.6833 113.202 51.49C112.935 51.2967 112.602 51.2 112.202 51.2C111.682 51.2 111.262 51.38 110.942 51.74C110.622 52.0933 110.462 52.5967 110.462 53.25C110.462 53.91 110.622 54.42 110.942 54.78C111.262 55.14 111.682 55.32 112.202 55.32C112.602 55.32 112.935 55.2267 113.202 55.04C113.468 54.8533 113.652 54.5867 113.752 54.24H114.732C114.585 54.8 114.292 55.25 113.852 55.59C113.412 55.9233 112.862 56.09 112.202 56.09C111.682 56.09 111.218 55.9733 110.812 55.74C110.412 55.5067 110.098 55.1767 109.872 54.75C109.645 54.3233 109.532 53.8233 109.532 53.25ZM120.946 53.05C120.946 53.2233 120.936 53.4067 120.916 53.6H116.536C116.569 54.14 116.752 54.5633 117.086 54.87C117.426 55.17 117.836 55.32 118.316 55.32C118.709 55.32 119.036 55.23 119.296 55.05C119.562 54.8633 119.749 54.6167 119.856 54.31H120.836C120.689 54.8367 120.396 55.2667 119.956 55.6C119.516 55.9267 118.969 56.09 118.316 56.09C117.796 56.09 117.329 55.9733 116.916 55.74C116.509 55.5067 116.189 55.1767 115.956 54.75C115.722 54.3167 115.606 53.8167 115.606 53.25C115.606 52.6833 115.719 52.1867 115.946 51.76C116.172 51.3333 116.489 51.0067 116.896 50.78C117.309 50.5467 117.782 50.43 118.316 50.43C118.836 50.43 119.296 50.5433 119.696 50.77C120.096 50.9967 120.402 51.31 120.616 51.71C120.836 52.1033 120.946 52.55 120.946 53.05ZM120.006 52.86C120.006 52.5133 119.929 52.2167 119.776 51.97C119.622 51.7167 119.412 51.5267 119.146 51.4C118.886 51.2667 118.596 51.2 118.276 51.2C117.816 51.2 117.422 51.3467 117.096 51.64C116.776 51.9333 116.592 52.34 116.546 52.86H120.006ZM128.303 52.41C128.556 52.45 128.786 52.5533 128.993 52.72C129.206 52.8867 129.373 53.0933 129.493 53.34C129.62 53.5867 129.683 53.85 129.683 54.13C129.683 54.4833 129.593 54.8033 129.413 55.09C129.233 55.37 128.97 55.5933 128.623 55.76C128.283 55.92 127.88 56 127.413 56H124.813V49.03H127.313C127.786 49.03 128.19 49.11 128.523 49.27C128.856 49.4233 129.106 49.6333 129.273 49.9C129.44 50.1667 129.523 50.4667 129.523 50.8C129.523 51.2133 129.41 51.5567 129.183 51.83C128.963 52.0967 128.67 52.29 128.303 52.41ZM125.723 52.04H127.253C127.68 52.04 128.01 51.94 128.243 51.74C128.476 51.54 128.593 51.2633 128.593 50.91C128.593 50.5567 128.476 50.28 128.243 50.08C128.01 49.88 127.673 49.78 127.233 49.78H125.723V52.04ZM127.333 55.25C127.786 55.25 128.14 55.1433 128.393 54.93C128.646 54.7167 128.773 54.42 128.773 54.04C128.773 53.6533 128.64 53.35 128.373 53.13C128.106 52.9033 127.75 52.79 127.303 52.79H125.723V55.25H127.333ZM130.606 53.24C130.606 52.68 130.719 52.19 130.946 51.77C131.172 51.3433 131.482 51.0133 131.876 50.78C132.276 50.5467 132.719 50.43 133.206 50.43C133.686 50.43 134.102 50.5333 134.456 50.74C134.809 50.9467 135.072 51.2067 135.246 51.52V50.52H136.166V56H135.246V54.98C135.066 55.3 134.796 55.5667 134.436 55.78C134.082 55.9867 133.669 56.09 133.196 56.09C132.709 56.09 132.269 55.97 131.876 55.73C131.482 55.49 131.172 55.1533 130.946 54.72C130.719 54.2867 130.606 53.7933 130.606 53.24ZM135.246 53.25C135.246 52.8367 135.162 52.4767 134.996 52.17C134.829 51.8633 134.602 51.63 134.316 51.47C134.036 51.3033 133.726 51.22 133.386 51.22C133.046 51.22 132.736 51.3 132.456 51.46C132.176 51.62 131.952 51.8533 131.786 52.16C131.619 52.4667 131.536 52.8267 131.536 53.24C131.536 53.66 131.619 54.0267 131.786 54.34C131.952 54.6467 132.176 54.8833 132.456 55.05C132.736 55.21 133.046 55.29 133.386 55.29C133.726 55.29 134.036 55.21 134.316 55.05C134.602 54.8833 134.829 54.6467 134.996 54.34C135.162 54.0267 135.246 53.6633 135.246 53.25ZM140.374 50.42C141.04 50.42 141.58 50.6233 141.994 51.03C142.407 51.43 142.614 52.01 142.614 52.77V56H141.714V52.9C141.714 52.3533 141.577 51.9367 141.304 51.65C141.03 51.3567 140.657 51.21 140.184 51.21C139.704 51.21 139.32 51.36 139.034 51.66C138.754 51.96 138.614 52.3967 138.614 52.97V56H137.704V50.52H138.614V51.3C138.794 51.02 139.037 50.8033 139.344 50.65C139.657 50.4967 140 50.42 140.374 50.42ZM147.16 56L145.01 53.58V56H144.1V48.6H145.01V52.95L147.12 50.52H148.39L145.81 53.25L148.4 56H147.16Z" fill="black"/>
<defs>
<clipPath id="clip0_2001_724">
<rect width="128" height="40" fill="white"/>
</clipPath>
</defs>
</svg>
