<svg xmlns="http://www.w3.org/2000/svg" viewBox="0 0 695.72 240.99" class="Footer_logo__xLcg0"><path d="M56.01 32.37C18.53 32.37 0 49.84 0 78.8v126.92h32.16v-48.76c6.6 5.96 17.68 8.94 33.23 8.94 31.74 0 46.88-16.61 46.88-45.58V78.79c-.02-28.97-18.55-46.43-56.25-46.43zm24.07 83.94c0 14.7-8.09 22.15-24.07 22.15s-23.85-7.48-23.85-22.15V82.85c0-14.7 7.88-22.15 23.85-22.15s24.07 7.46 24.07 22.15v33.46zM312.1 32.37c-35.78 0-54.31 18.74-54.31 45.99v41.74c0 27.26 18.53 45.79 54.1 45.79s53.46-18.53 53.46-45.79v-7.23h-30.88v3.83c0 13.84-7.46 20.87-22.55 20.87s-22.55-7.03-22.55-21.3V81.98c0-14.27 7.66-21.3 22.79-21.3s22.36 7.03 22.36 20.87v4.26h30.88v-7.45c-.04-27.26-18.57-46.01-53.29-46.01zm180.29 2.13h-36l-27.26 47.71h-16.2V0h-32.16v164h32.16v-54.53h15.14L457.24 164h37.06l-38.12-66.88 36.21-62.62zm62.5-2.13c-37.27 0-56.66 17.69-56.66 45.99v41.97c0 28.33 18.95 45.58 56.66 45.58s56.44-15.97 56.44-38.76v-4.26h-31.11v1.07c0 10.44-8.31 15.76-25.13 15.76s-25.77-7.24-25.77-21.51v-10.22h82v-29.6c.02-28.75-19.15-46.01-56.42-46.01zm25.33 54.75h-50.9v-6.63c0-14.7 8.52-21.94 25.56-21.94s25.34 7.24 25.34 21.72v6.85zm101.65 48.97c-16.81 0-22.55-5.31-22.55-24.92v-50.9h35.14V34.49h-35.14V7.88h-32.16v105.43c0 36.42 13.21 50.9 47.28 50.9h20.87V136.1h-13.44zM217.39 34.57c-11.13-1.39-22.33-2.1-33.55-2.14-4.81-.16-11.14.33-17.46.77-5.53.39-11.06.78-16.54 1.84-9.8 1.91-19.12 13.22-20.28 24.59a391.47 391.47 0 0 0-1.71 52.6c.44 12.76 4.89 23.24 13.27 31.5 3.36 3.28 7.07 6.18 11.06 8.66 7.43 4.67 15.26 8.22 23.21 11.41a24.43 24.43 0 0 0 15.54 1.03c7.96-2.1 15.34-6.08 22.71-10 5.14-2.72 9.88-6.11 14.12-10.08 7.43-6.99 12.48-15.67 13.82-26.82.52-4.31.65-8.69.75-13.05.33-14.59-.42-29.15-1.77-43.66-1.31-14.13-10.92-25.15-23.17-26.66zm-66.78 17.11c.39-.5.85-.95 1.37-1.33.4-.25.81-.46 1.24-.65.2-.14.41-.25.64-.34.44-.18.98-.33 1.5-.48.28-.04.55-.15.86-.19l1.77-.21c.34 0 .65-.06 1.02-.08s.74-.04 1.11 0l24.93.69 24.93-.69h1.11c.34 0 .68.07 1.02.08.59.06 1.24.15 1.77.21.31.04.58.15.86.19.52.15 1.04.3 1.5.48a3.28 3.28 0 0 1 .64.34c.43.19.84.4 1.24.65.51.38.97.82 1.37 1.33 1.77 2.26 1.96 5.56.78 9.45l-.54 1.99c-.27 1.15-.47 2.31-.61 3.48-.18 1.12-.29 2.26-.32 3.4a44.27 44.27 0 0 0 0 4.75c-1.19.31-2.51.59-3.93.88-.22-2.16-.29-4.33-.21-6.5.05-1.14.15-2.28.32-3.41a27.64 27.64 0 0 1 .64-3.48c.08-.28.12-.55.17-.83.72-2.7.4-5.14-1-6.82-1.43-1.91-3.9-2.8-7.2-2.72l-22.52.77-22.52-.77c-3.3-.09-5.77.81-7.2 2.72-1.41 1.68-1.72 4.12-1 6.82.05.28.09.55.17.83.29 1.14.5 2.3.64 3.48.17 1.13.27 2.27.32 3.41.08 2.17.02 4.34-.21 6.5l-3.93-.88c.08-1.59.06-3.21 0-4.75a24.15 24.15 0 0 0-.32-3.4c-.14-1.17-.34-2.33-.61-3.48-.19-.71-.34-1.33-.54-1.99-1.26-3.89-1.07-7.18.71-9.45h.02zm8.36 17.27c4.29-.03 7.63-.81 10.04-2.39a7.77 7.77 0 0 0 3.49-4.18c.47-1.23.63-2.57.44-3.87a12.45 12.45 0 0 0-.26-1.38c-.18-.49-.36-1.01-.57-1.49l12.93.5 12.93-.5c-.21.49-.39 1.01-.57 1.49a16.73 16.73 0 0 0-.26 1.38c-.18 1.31-.03 2.64.44 3.87a7.77 7.77 0 0 0 3.49 4.18c2.41 1.58 5.75 2.36 10.04 2.39-.09 2.46 0 4.92.26 7.37a126.97 126.97 0 0 1-26.33 1.91c-8.82.28-17.64-.35-26.33-1.91.25-2.45.33-4.91.22-7.37h.02zm-.92-7.44c0-.14-.02-.27-.05-.4-.42-1.65-.24-3.13.61-4.16.94-1.13 2.53-1.74 4.64-1.62l4.86.14a8.627 8.627 0 0 1 1.15 3.83c.05 1.02-.27 2.03-.88 2.84-.34.51-.77.96-1.27 1.3-1.77 1.33-4.59 1.96-8.32 1.99 0-.12-.04-.21-.05-.34-.15-1.21-.39-2.4-.71-3.57h.02zm53.32 3.57c0 .12-.04.21-.05.34-3.73-.03-6.55-.66-8.32-1.99a4.62 4.62 0 0 1-1.27-1.3 4.33 4.33 0 0 1-.88-2.84c.08-1.35.47-2.66 1.15-3.83l4.86-.14c2.12-.11 3.7.49 4.64 1.62.85 1.03 1.03 2.51.6 4.16-.03.13-.05.27-.05.4-.32 1.17-.55 2.37-.71 3.57h.02zm18.33 20.75a5.737 5.737 0 0 1-3.89 5.17 144.39 144.39 0 0 1-81.52 0 5.737 5.737 0 0 1-3.89-5.17v-5.91c0-2.21 1.73-3.4 3.89-2.77a144.57 144.57 0 0 0 81.52 0c2.15-.63 3.89.57 3.89 2.77v5.91z" opacity="0.87" fill="currentColor"></path><g opacity="0.38" fill="currentColor"><path d="M503.29 191.62h7.54l-1.75 9.99c2.15-1.6 4.8-2.4 7.84-2.4 3.6 0 6.2 1.05 7.85 3.1 1.6 2.1 2.1 4.7 1.55 7.85l-1.75 9.79c-1.25 7.25-5.59 10.6-14.64 10.6-4.25 0-7.4-1.05-9.4-3.2s-2.7-4.9-2.1-8.3l4.84-27.43zm15.39 19.29c.6-3.45-.95-5.2-4.7-5.2s-5.95 1.75-6.55 5.2l-1.4 7.85c-.6 3.45 1 5.2 4.75 5.2s5.89-1.75 6.5-5.2l1.4-7.85zm36.27 18.15c-1.4 8.05-6.05 11.49-14.24 11.49h-.9c-3.7 0-6.6-.95-8.75-2.8s-2.95-4.15-2.4-6.84l.15-.65h7.15c-.45 2.55 1.15 3.95 4.7 3.95 3.9 0 6.15-1.65 6.7-4.9l.65-3.5c-1.95 1.35-4.3 2-7.15 2-3.55 0-6.25-1-8-3-1.8-2-2.45-4.55-1.9-7.64l3.05-17.29h7.54l-2.89 16.29c-.55 3.45.95 5.15 4.59 5.15s5.9-1.7 6.5-5.15l2.85-16.29h7.54l-5.2 29.18z"></path><path d="m592.65 221.71.05-.45c.54-2.81-.73-4.02-4.74-4.02s-5.57 1.21-6.06 4.02l-.1.5c-.54 2.81 1.22 4.07 4.69 4.07s5.72-1.71 6.16-4.12zm13.64-2.06 4.6-26.74a1 1 0 0 1 .99-.83h5.35c.55 0 1 .45 1 1 0 .06 0 .11-.01.17l-1.51 8.87c1.86-1.41 3.91-2.41 7.67-2.41 7.33 0 10.21 5.02 9.19 11l-1.71 9.84c-1.22 7.18-5.28 10.65-14.32 10.65-8.5 0-12.41-4.87-11.24-11.55zm18.42-.3 1.37-7.88c.54-3.11-.64-5.22-4.59-5.22s-5.86 2.11-6.4 5.22l-1.37 7.88c-.54 3.11.64 5.22 4.64 5.22s5.82-2.11 6.35-5.22zm38.95-1.81h-18.82l-.39 2.41c-.44 2.66.34 5.07 5.03 5.07 4.06 0 6.01-1.21 6.45-3.72.03-.15.16-.25.3-.25h5.82a.88.88 0 0 1 .88.88v.13c-1.03 5.93-5.08 9.14-14.03 9.14s-12.66-4.97-11.53-11.35l1.56-9.29c1.32-7.23 5.38-10.85 14.42-10.85s12.56 4.87 11.44 11.4l-1.12 6.43zm-17.69-6.48-.24 1.56h11.68l.29-1.61c.54-3.21-.73-5.12-4.94-5.12s-6.26 2.11-6.79 5.17zm34.8 11.2c4.01 0 5.86-2.11 6.4-5.12l.93-5.57c.54-3.06-.64-5.12-4.59-5.12s-5.82 2.06-6.35 5.12l-.93 5.57c-.54 3.01.59 5.12 4.55 5.12zm3.42-22.55c8.5 0 12.51 4.97 11.34 11.75l-3.13 18.18c-1.47 8.29-6.01 11.35-13.98 11.35h-.83c-7.09 0-11.68-3.67-10.95-9.64.06-.32.33-.55.66-.55h6.43c-.39 2.31 1.22 3.92 4.64 3.92 4.35 0 6.16-2.06 6.65-4.92l.68-3.77c-1.86 1.51-3.86 2.36-7.77 2.36-6.74 0-10.21-4.77-9.09-11.35l1.08-6.38c1.22-7.18 5.28-10.95 14.27-10.95zm-88.3-3.67c.55 0 1 .45 1 1 0 .08 0 .16-.03.24l-.75 3.1c4.49 1.51 6.67 5.45 5.83 10.33l-1.76 10.24c-1.08 6.27-4.61 9.18-10.08 10.03l-.66 2.69c-.11.45-.51.77-.97.77h-5.84c-.55 0-1-.45-1-1 0-.08 0-.16.03-.24l.53-2.18c-5.37-.9-8.39-4.35-7.76-9.16l.1-.7c.68-5.47 4.3-8.69 12.76-8.69 3.23 0 5.62.5 6.74 1.15l.44-2.66c.54-2.91-.73-4.87-4.35-4.87-3.03 0-5.23 1.05-5.67 3.72h-7.04c.84-6.1 4.04-9.39 10.93-9.99l.73-3.01c.11-.45.51-.77.97-.77h5.84z" fill-rule="evenodd"></path></g></svg>