<svg width="1519" height="467" viewBox="0 0 1519 467" fill="none" xmlns="http://www.w3.org/2000/svg">
<path d="M466.74 233.581C467.3 359.471 365.13 466.721 233.58 466.891C105.24 467.041 -0.0999289 363.581 7.11393e-05 233.341C0.100071 101.401 107.54 -0.269463 233.8 0.000536511C363.07 0.270537 467.37 105.801 466.74 233.581ZM242.59 141.411C242.18 179.071 273.75 209.591 310.75 209.581C346.12 209.581 378.85 181.021 378.93 141.311C379.01 101.231 346.27 72.8705 311.09 72.8005C274.73 72.7305 242.16 103.031 242.59 141.411Z" fill="#DB353A"/>
<path d="M243.004 141.61C242.574 103.23 275.144 72.9301 311.504 73.0001C346.684 73.0701 379.424 101.43 379.344 141.51C379.264 181.22 346.534 209.78 311.164 209.78C274.164 209.78 242.594 179.27 243.004 141.61Z" fill="#FFFEFE"/>
<path d="M1480.09 351.22C1479.32 350.96 1479.09 351.13 1478.85 351.53C1473.12 361.25 1464.13 366.53 1453.5 368.61C1434.69 372.34 1417.17 368.73 1401.69 357.21C1388.93 347.71 1381.77 334.6 1379.69 318.98C1377.39 303.182 1379.87 287.055 1386.81 272.68C1396.94 251.68 1413.74 239.03 1436.39 234.13C1445.57 232.019 1455.05 231.545 1464.39 232.73C1487.7 235.92 1503.56 248.52 1512.17 270.27C1515.19 277.628 1516.75 285.499 1516.77 293.45C1516.6 316.86 1517.6 340.24 1518.01 363.64C1518.21 372.877 1516.63 382.065 1513.37 390.71C1505.87 410.55 1492.06 424.07 1471.97 430.77C1455.79 436.23 1438.34 436.683 1421.89 432.07C1415.82 430.477 1410.08 427.797 1404.96 424.16C1396.31 417.94 1391.44 409.79 1391.96 398.82C1392.14 394.96 1391.96 391.08 1392.01 387.21C1392.01 386.45 1392.18 385.65 1392.96 385.4C1393.33 385.321 1393.71 385.348 1394.07 385.477C1394.42 385.606 1394.73 385.832 1394.96 386.13C1398.46 389.423 1402.47 392.125 1406.83 394.13C1412.85 396.925 1419.22 398.886 1425.77 399.96C1432.45 401.08 1439.23 401.456 1445.99 401.08C1451.53 400.901 1456.99 399.771 1462.14 397.74C1471.98 393.74 1477.86 386.41 1479.92 376.1C1481.03 370.842 1481.29 365.441 1480.7 360.1C1480.38 357.13 1480.29 354.08 1480.09 351.22ZM1479.38 301.22C1479.38 292.16 1478.38 286.52 1475.89 281C1470.97 269.93 1461.54 264.82 1449.75 265.42C1437.96 266.02 1428.75 271.88 1422.99 282.31C1419.82 287.842 1417.92 294.01 1417.44 300.367C1416.95 306.724 1417.88 313.11 1420.17 319.06C1424.94 332.06 1437.17 341.14 1454.74 337.48C1465.74 335.18 1472.74 328.02 1476.67 317.71C1478.59 312.44 1479.51 306.858 1479.38 301.25V301.22Z" fill="white"/>
<path d="M666.732 243.71C665.352 243.59 664.732 242.56 663.962 241.83C653.822 232.47 641.652 227.83 628.132 226.17C620.078 225.182 611.932 225.199 603.882 226.22C598.367 226.742 592.988 228.235 587.992 230.63C579.802 234.83 575.822 241.49 576.092 250.75C576.12 252.876 576.606 254.97 577.52 256.89C578.433 258.809 579.75 260.508 581.382 261.87C583.924 264.009 586.777 265.749 589.842 267.03C596.799 269.969 604.009 272.269 611.382 273.9C617.642 275.4 623.962 276.7 630.172 278.41C638.57 280.634 646.494 284.361 653.562 289.41C663.722 296.79 670.562 306.52 672.062 319.04C675.432 346.74 664.402 373.33 633.932 384.47C620.212 389.47 605.932 390.67 591.452 389.53C584.274 389.127 577.172 387.851 570.302 385.73C565.555 384.253 561.038 382.119 556.882 379.39C547.352 372.91 542.392 363.92 542.152 352.39C542.042 347.23 542.152 342.07 542.152 336.91C542.152 335.76 543.092 335.27 543.982 335.91C545.162 336.79 546.272 337.77 547.432 338.67C565.052 352.35 584.962 357.67 607.062 355.09C611.841 354.654 616.533 353.533 620.992 351.76C625.912 349.68 629.932 346.56 632.182 341.6C634.892 335.6 634.952 329.43 633.452 323.21C632.692 320.07 630.452 317.76 627.912 315.83C625.062 313.786 621.938 312.153 618.632 310.98C610.16 307.911 601.469 305.484 592.632 303.72C585.95 302.388 579.375 300.563 572.962 298.26C565.836 295.711 559.197 291.964 553.332 287.18C541.852 277.52 536.992 265 538.172 250.39C540.312 224.68 554.602 207.72 577.742 197.67C585.893 194.174 594.627 192.237 603.492 191.96C614.192 191.55 624.862 191.74 635.352 194.29C641.114 195.579 646.642 197.748 651.742 200.72C657.063 203.746 661.412 208.224 664.282 213.63C665.917 216.536 666.878 219.773 667.092 223.1C667.262 229.54 667.312 235.99 667.362 242.44C667.362 242.84 666.992 243.3 666.732 243.71Z" fill="white"/>
<path d="M857.802 327.12C850.992 327.12 844.172 327.12 837.352 327.12C835.272 327.12 834.722 327.84 835.162 329.85C836.249 334.916 838.563 339.638 841.902 343.6C847.962 350.81 855.842 354.87 864.902 356.9C872.382 358.58 879.902 358.29 887.462 357.66C893.16 357.202 898.786 356.094 904.232 354.36C910.762 352.341 916.833 349.063 922.102 344.71C923.242 343.71 924.372 344.25 924.372 345.66C924.372 351 924.692 356.33 923.812 361.66C923.263 365.407 921.938 368.999 919.921 372.205C917.905 375.411 915.242 378.161 912.102 380.28C906.747 383.917 900.679 386.374 894.302 387.49C883.052 389.69 871.732 390.62 860.242 389.11C832.772 385.52 806.722 365.7 798.572 335.32C796.045 325.875 795.179 316.062 796.012 306.32C796.573 297.677 798.223 289.14 800.922 280.91C806.392 265.09 815.642 252.12 829.922 243.06C839.432 237.06 849.872 233.85 861.042 232.59C872.606 231.117 884.352 232.792 895.042 237.44C912.902 245.32 924.342 258.73 928.552 277.93C930.135 284.583 930.362 291.487 929.222 298.23C927.752 306.23 923.812 312.61 916.942 317.09C911.922 320.203 906.395 322.413 900.612 323.62C891.799 325.596 882.812 326.695 873.782 326.9C868.442 327.06 863.102 326.9 857.782 326.9L857.802 327.12ZM853.322 300.54C860.782 300.46 868.872 300.54 876.912 299.39C880.747 298.947 884.504 297.989 888.082 296.54C890.079 295.774 891.788 294.405 892.972 292.624C894.157 290.843 894.758 288.738 894.692 286.6C894.812 278.05 891.412 270.52 882.692 266.6C874.9 263.095 866.136 262.388 857.882 264.6C847.932 267.18 841.422 273.88 837.382 283.14C835.432 287.59 834.872 292.34 834.452 297.14C834.192 300.03 834.502 300.45 837.262 300.48C842.402 300.58 847.552 300.54 853.322 300.54Z" fill="white"/>
<path d="M1355.75 336.87C1355.75 350.87 1355.75 364.87 1355.75 378.87C1355.75 379.98 1355.75 381.09 1355.75 382.19C1355.66 386.36 1355.59 386.45 1351.34 386.49C1346.92 386.49 1342.49 386.65 1338.14 385.62C1328.62 383.37 1321.91 378.02 1319.07 368.41C1318.22 365.54 1318.33 362.57 1318.33 359.62C1318.33 341 1318.33 322.383 1318.33 303.77C1318.4 298.049 1317.78 292.341 1316.47 286.77C1315.74 283.721 1314.57 280.792 1313.01 278.07C1310.29 273.186 1305.89 269.453 1300.62 267.56C1294.2 265.098 1287.17 264.689 1280.5 266.39C1274.72 267.823 1269.69 271.397 1266.43 276.39C1263.57 280.704 1261.73 285.622 1261.08 290.76C1260.53 294.776 1260.25 298.826 1260.24 302.88C1260.29 328.693 1260.29 354.5 1260.24 380.3C1260.24 387.06 1260.68 386.49 1253.9 386.49C1250.22 386.63 1246.53 386.388 1242.9 385.77C1231.51 383.45 1224.35 375.77 1223.13 364.31C1222.93 362.293 1222.84 360.267 1222.85 358.24C1222.85 338.507 1222.85 318.783 1222.85 299.07C1222.85 291.07 1223.6 283.23 1226.1 275.62C1232.58 255.91 1245.51 242.43 1265.32 236C1280.21 231.17 1295.32 230.48 1310.5 234.84C1334.33 241.71 1348.5 257.69 1353.96 281.67C1355.23 287.827 1355.83 294.104 1355.74 300.39C1355.8 312.53 1355.75 324.7 1355.75 336.87Z" fill="white"/>
<path d="M697.912 286.99C697.912 271.68 697.912 256.38 697.912 241.08C697.847 238.132 698.007 235.184 698.392 232.26C700.302 219.97 707.562 211.2 717.392 204.32C722.212 200.96 727.812 201.03 733.392 201.48C733.861 201.509 734.3 201.721 734.613 202.071C734.925 202.422 735.087 202.881 735.062 203.35C735.132 204.64 735.132 205.93 735.132 207.22C735.132 214.59 735.132 221.97 735.132 229.34C735.132 230.63 735.132 231.92 735.132 233.21C735.096 233.487 735.122 233.768 735.208 234.034C735.294 234.299 735.437 234.542 735.629 234.745C735.82 234.948 736.055 235.106 736.315 235.207C736.575 235.308 736.854 235.35 737.132 235.33C738.612 235.33 740.082 235.39 741.552 235.39H780.272C781.382 235.39 782.482 235.39 783.592 235.39C787.182 235.47 787.262 235.53 787.322 239.18C787.322 242.32 787.322 245.45 787.322 248.58C787.252 259.24 780.802 266.75 770.242 268.28C767.5 268.636 764.737 268.806 761.972 268.79C755.152 268.86 748.332 268.79 741.512 268.79C740.222 268.79 738.932 268.79 737.642 268.79C735.852 268.89 735.272 269.42 735.162 271.05C735.082 272.15 735.102 273.26 735.102 274.37C735.102 291.877 735.102 309.39 735.102 326.91C734.96 331.152 735.407 335.392 736.432 339.51C739.012 348.51 744.542 353.51 754.202 354.39C764.532 355.27 774.842 354.73 784.512 350.17C786.562 349.17 787.262 349.64 787.292 351.79C787.292 355.79 787.442 359.91 787.292 363.95C786.822 373.69 782.132 380.63 773.172 384.64C769.809 386.169 766.218 387.135 762.542 387.5C752.202 388.5 741.912 388.1 731.882 385.04C715.142 379.95 704.632 368.81 700.172 351.95C698.591 345.878 697.811 339.625 697.852 333.35C697.852 317.87 697.852 302.387 697.852 286.9L697.912 286.99Z" fill="white"/>
<path d="M1054.1 267.72C1054.1 241.92 1054.1 216.127 1054.1 190.34C1054.1 185.04 1053.93 185.25 1059.26 185.27C1062.03 185.27 1064.79 185.27 1067.55 185.33C1070.69 185.413 1073.79 186.029 1076.72 187.15C1084.27 189.87 1088.79 195.28 1090.72 202.99C1091.44 206.23 1091.75 209.544 1091.66 212.86C1091.66 253.02 1091.66 293.18 1091.66 333.34C1091.66 335.92 1091.66 338.51 1091.83 341.07C1092.46 348.83 1096.5 353.68 1103.94 355.67C1107.15 356.531 1110.45 356.961 1113.77 356.95C1117.46 356.95 1121.14 356.95 1124.83 357.01C1126.06 357.01 1127.02 357.49 1127.06 358.87C1127.2 363.87 1127.41 368.87 1126.06 373.69C1125.39 376.482 1124.03 379.059 1122.09 381.18C1120.15 383.302 1117.71 384.898 1114.99 385.82C1112.42 386.777 1109.73 387.385 1106.99 387.63C1098.71 388.389 1090.37 387.522 1082.42 385.08C1067.27 380.28 1058.65 369.72 1055.42 354.4C1054.52 349.693 1054.11 344.903 1054.2 340.11C1054.14 315.983 1054.11 291.854 1054.1 267.72Z" fill="white"/>
<path d="M989.552 338.39C989.552 352.784 989.552 367.167 989.552 381.54C989.552 386.54 989.492 386.54 984.742 386.54C979.992 386.54 975.152 386.64 970.432 385.54C961.942 383.64 955.592 379.18 952.892 370.54C952.03 367.715 951.602 364.774 951.622 361.82C951.622 338.59 951.512 315.36 951.692 292.13C951.609 282.321 953.657 272.611 957.692 263.67C965.282 247.37 978.052 237.97 995.692 235.04C1002.97 233.691 1010.43 233.721 1017.69 235.13C1021.14 235.797 1024.44 237.063 1027.44 238.87C1030.82 240.812 1033.63 243.604 1035.6 246.969C1037.57 250.333 1038.62 254.153 1038.65 258.05C1038.79 261.73 1038.72 265.42 1038.65 269.11C1038.65 271.79 1037.93 272.21 1035.2 271.35C1033.97 270.97 1032.77 270.48 1031.54 270.09C1024.49 267.853 1017.03 267.197 1009.69 268.17C1001.27 269.29 995.462 273.83 992.342 281.72C990.936 285.138 990.117 288.769 989.922 292.46C989.742 296.69 989.592 300.93 989.582 305.17C989.522 316.24 989.552 327.3 989.552 338.39Z" fill="white"/>
<path d="M1141.57 294.61C1141.57 277.637 1141.57 260.674 1141.57 243.72C1141.57 238.81 1141.57 238.8 1146.34 238.72C1150.76 238.533 1155.19 238.798 1159.56 239.51C1169.46 241.51 1175.56 247.37 1177.95 257.1C1178.78 260.707 1179.17 264.401 1179.1 268.1C1179.06 290.227 1179.06 312.354 1179.1 334.48C1179.1 336.87 1179.04 339.28 1179.27 341.66C1179.98 348.91 1183.21 354.39 1192 356.18C1196 356.838 1200.05 357.1 1204.1 356.96C1209.03 356.96 1209.01 356.91 1208.98 361.82C1209.13 365.874 1208.83 369.931 1208.09 373.92C1206.51 380.92 1202.42 385.29 1195.37 386.92C1193.04 387.465 1190.66 387.774 1188.27 387.84C1182.37 388.031 1176.47 387.358 1170.76 385.84C1156.76 382 1147.92 372.92 1143.9 359.1C1142.28 353.417 1141.5 347.529 1141.56 341.62C1141.56 325.95 1141.56 310.28 1141.56 294.62L1141.57 294.61Z" fill="white"/>
<path d="M1138.25 202.75C1138.27 196.987 1140.56 191.464 1144.63 187.389C1148.71 183.313 1154.23 181.016 1159.99 181C1172.11 181 1182.51 191.21 1182.13 203.09C1182.05 208.873 1179.72 214.395 1175.62 218.475C1171.52 222.555 1165.99 224.868 1160.2 224.92C1157.3 224.94 1154.41 224.379 1151.73 223.27C1149.04 222.16 1146.6 220.524 1144.56 218.458C1142.51 216.393 1140.9 213.939 1139.82 211.241C1138.74 208.543 1138.2 205.656 1138.25 202.75Z" fill="white"/>
<path d="M1137.5 438.47C1138.58 437.47 1139.5 436.61 1140.5 435.87C1146.89 431.1 1157.11 433.67 1158.5 442.66C1158.77 443.922 1158.95 445.202 1159.03 446.49C1159.09 451.83 1159.03 457.18 1159.03 462.49C1159.03 463.6 1159.03 464.84 1157.57 465.07C1156.93 465.173 1156.27 465.081 1155.68 464.804C1155.09 464.528 1154.6 464.081 1154.26 463.52C1153.73 462.538 1153.52 461.419 1153.63 460.31C1153.63 456.26 1153.63 452.2 1153.63 448.14C1153.69 446.108 1153.33 444.085 1152.57 442.2C1151.46 439.63 1149.51 438.56 1146.3 438.71C1143.3 438.85 1141.18 440.26 1140.55 442.95C1140.13 444.923 1139.92 446.934 1139.92 448.95C1139.83 453.38 1139.92 457.8 1139.92 462.23C1139.92 463.31 1140.04 464.56 1138.73 465.04C1137.92 465.235 1137.06 465.113 1136.34 464.698C1135.61 464.284 1135.07 463.609 1134.82 462.81C1134.57 461.549 1134.45 460.266 1134.46 458.98C1134.41 455.66 1134.46 452.34 1134.41 448.98C1134.4 447.14 1134.19 445.307 1133.79 443.51C1133.49 442.05 1132.66 440.751 1131.46 439.857C1130.27 438.962 1128.79 438.533 1127.3 438.65C1124.17 438.71 1122.38 440.16 1121.3 443.39C1120.78 445.344 1120.56 447.369 1120.67 449.39C1120.67 454 1120.67 458.61 1120.59 463.22C1120.6 463.538 1120.52 463.852 1120.36 464.13C1120.21 464.408 1119.99 464.642 1119.72 464.807C1119.44 464.973 1119.13 465.065 1118.82 465.074C1118.5 465.083 1118.18 465.01 1117.9 464.86C1115.82 464.1 1115.26 462.43 1115.25 460.48C1115.25 455.68 1115.14 450.89 1115.32 446.1C1115.42 444.261 1115.85 442.453 1116.57 440.76C1117.82 437.844 1120.16 435.529 1123.08 434.306C1126.01 433.083 1129.3 433.049 1132.25 434.21C1134.39 435.16 1135.82 436.86 1137.5 438.47Z" fill="white"/>
<path d="M1255.41 444.58C1255.68 445.58 1256.59 445.86 1257.29 446.37C1263.29 450.69 1261.38 459.1 1256.78 462.64C1255.77 463.437 1254.63 464.049 1253.4 464.45C1248.61 465.863 1243.53 465.956 1238.69 464.72C1235.53 463.98 1233.78 461.59 1233.4 458.33C1233.31 457.413 1233.28 456.491 1233.3 455.57C1233.3 447.46 1233.3 439.35 1233.3 431.24C1233.3 426.88 1233.35 426.84 1237.79 425.98C1242.15 425.153 1246.62 425.068 1251 425.73C1256.37 426.51 1260.68 430.28 1260.14 436.87C1260.06 438.915 1259.2 440.852 1257.73 442.28C1256.99 443.03 1255.79 443.39 1255.41 444.58ZM1238.68 452.58C1238.68 453.5 1238.68 454.41 1238.68 455.33C1238.66 455.697 1238.66 456.064 1238.68 456.43C1238.92 458.7 1239.8 459.99 1241.85 460.36C1245.09 461.094 1248.47 460.917 1251.61 459.85C1254.61 458.7 1255.8 456.43 1255.5 452.77C1255.25 449.77 1253.93 448.09 1250.86 447.5C1248.7 447.11 1246.51 446.91 1244.31 446.9C1238.42 446.83 1238.65 446.63 1238.68 452.6V452.58ZM1244.86 442.58C1246.87 442.481 1248.88 442.271 1250.86 441.95C1253.38 441.42 1254.73 439.45 1254.86 436.72C1254.96 433.83 1253.86 432.01 1251.48 431.04C1249.24 430.257 1246.85 429.954 1244.48 430.15C1239.02 430.32 1238.67 430.66 1238.68 436.15C1238.62 442.87 1238.15 442.39 1244.86 442.56V442.58Z" fill="white"/>
<path d="M877.743 446.33C877.592 448.907 877.115 451.454 876.323 453.91C873.553 461.56 867.483 465.91 859.563 465.75C855.852 465.736 852.249 464.503 849.307 462.241C846.366 459.978 844.249 456.813 843.283 453.23C841.641 447.912 841.775 442.205 843.663 436.97C846.493 428.92 852.663 424.91 861.553 425.32C868.983 425.66 874.833 430.51 876.863 438.17C877.585 440.827 877.882 443.581 877.743 446.33ZM847.503 444.95C847.422 447.344 847.761 449.733 848.503 452.01C850.073 457.66 854.433 460.83 860.323 460.81C865.823 460.81 869.963 457.57 871.573 452.05C872.773 447.8 872.773 443.3 871.573 439.05C870.053 433.27 866.003 430.16 859.933 430.05C854.203 430.05 850.093 432.95 848.433 438.45C847.719 440.54 847.404 442.744 847.503 444.95Z" fill="white"/>
<path d="M942.062 458.2C943.012 461.4 941.642 463.13 939.312 464.34C931.562 468.34 921.552 464.62 918.682 456.44C917.668 453.749 917.297 450.858 917.599 447.999C917.901 445.139 918.868 442.39 920.422 439.97C922.191 437.007 925.053 434.856 928.392 433.983C931.731 433.109 935.279 433.582 938.272 435.3C940.146 436.326 941.659 437.902 942.609 439.816C943.558 441.729 943.898 443.888 943.582 446C943.502 447.016 943.145 447.991 942.551 448.819C941.957 449.647 941.149 450.297 940.212 450.7C938.18 451.602 935.976 452.052 933.752 452.02C930.812 452.02 927.862 452.02 924.912 452.14C924.687 452.154 924.468 452.22 924.272 452.333C924.076 452.445 923.909 452.601 923.783 452.789C923.657 452.977 923.577 453.191 923.547 453.415C923.517 453.638 923.54 453.866 923.612 454.08C924.612 457.91 927.782 460.42 932.112 460.76C934.932 460.98 936.842 460.5 942.062 458.2ZM930.612 447.66C931.492 447.6 933.712 447.57 935.872 447.24C937.762 446.95 938.552 445.5 938.302 443.58C938.231 442.561 937.857 441.586 937.228 440.781C936.599 439.975 935.744 439.376 934.772 439.06C930.362 437.58 925.052 438.96 923.492 444.73C922.972 446.65 923.542 447.57 925.442 447.65C926.722 447.71 927.992 447.66 930.612 447.66Z" fill="white"/>
<path d="M1190.86 457.81C1191.32 462.13 1189.42 464.02 1186.59 464.87C1176.12 467.98 1168.11 462.74 1166.34 453.55C1165.39 448.977 1166.24 444.215 1168.71 440.25C1172.25 434.47 1179.03 432.04 1184.99 434.43C1186.83 435.078 1188.47 436.207 1189.72 437.7C1190.98 439.193 1191.81 440.996 1192.13 442.92C1192.73 446.19 1191.8 450.25 1186.95 451.33C1185.52 451.661 1184.07 451.879 1182.6 451.98C1180.39 452.1 1178.17 451.98 1175.97 452.09C1174.74 452.09 1173.12 451.56 1172.43 452.83C1171.54 454.49 1172.63 456.01 1173.69 457.3C1176.16 460.3 1179.46 461.07 1183.14 460.69C1185.89 460.297 1188.53 459.315 1190.86 457.81ZM1171.86 447.38C1175.85 447.883 1179.88 447.863 1183.86 447.32C1186.72 446.96 1187.72 444.68 1186.42 442.04C1186.07 441.293 1185.57 440.627 1184.95 440.086C1184.32 439.545 1183.59 439.141 1182.8 438.9C1176.99 437.05 1172.06 440.77 1171.91 447.39L1171.86 447.38Z" fill="white"/>
<path d="M1268.82 441.61C1268.07 439.42 1269.01 437.77 1270.6 436.34C1274.75 432.62 1283.3 432.52 1287.6 436.14C1288.55 436.88 1289.34 437.811 1289.91 438.874C1290.48 439.937 1290.82 441.108 1290.9 442.31C1291.11 447.31 1291.19 452.25 1290.9 457.2C1290.84 458.878 1290.26 460.494 1289.24 461.831C1288.22 463.167 1286.82 464.158 1285.22 464.67C1281.42 466.199 1277.17 466.171 1273.38 464.59C1269.68 463.05 1267.31 460.43 1267.38 456.21C1267.33 454.35 1267.88 452.523 1268.93 450.991C1269.99 449.46 1271.51 448.304 1273.26 447.69C1274.8 447.098 1276.41 446.689 1278.04 446.47C1279.67 446.22 1281.34 446.25 1283.04 446.13C1285.25 445.97 1285.98 445.02 1285.54 442.97C1285.39 441.863 1284.86 440.843 1284.04 440.083C1283.22 439.323 1282.16 438.87 1281.04 438.8C1277.93 438.242 1274.73 438.723 1271.92 440.17C1270.92 440.68 1270.23 441.69 1268.82 441.61ZM1281.67 450.79C1278.06 450.79 1276.48 451.13 1274.84 452.25C1274.31 452.608 1273.87 453.079 1273.54 453.629C1273.22 454.178 1273.02 454.793 1272.95 455.43C1272.89 456.066 1272.97 456.708 1273.19 457.309C1273.4 457.911 1273.75 458.458 1274.2 458.91C1276.61 461.05 1279.45 461.25 1282.41 460.31C1285.17 459.43 1285.71 457.17 1285.75 454.65C1285.75 454.11 1285.75 453.56 1285.75 453.01C1285.65 451.36 1285.16 450.9 1283.33 450.8C1282.77 450.77 1282.22 450.79 1281.67 450.79Z" fill="white"/>
<path d="M1337.6 445.94C1339.6 445.72 1340.05 444.62 1340.78 443.85C1343.05 441.45 1345.29 439 1347.55 436.59C1348.49 435.488 1349.75 434.704 1351.15 434.346C1352.55 433.988 1354.03 434.073 1355.38 434.59C1355.38 435.87 1354.38 436.25 1353.8 436.87C1351.11 439.64 1348.33 442.33 1345.7 445.15C1342.32 448.77 1342.32 448.15 1345.57 452.31C1348.51 456.08 1351.43 459.87 1355.52 462.53C1356.29 463.03 1355.97 464.42 1355.08 464.79C1354.17 465.243 1353.14 465.408 1352.13 465.263C1351.12 465.119 1350.17 464.671 1349.42 463.98C1347.94 462.612 1346.54 461.149 1345.24 459.6C1343.32 457.37 1341.5 455.05 1339.64 452.77C1339.5 452.543 1339.28 452.373 1339.03 452.287C1338.78 452.202 1338.5 452.206 1338.25 452.3C1337.53 452.55 1337.65 453.18 1337.64 453.68C1337.57 456.99 1337.58 460.3 1337.48 463.61C1337.46 463.883 1337.37 464.145 1337.22 464.375C1337.07 464.605 1336.87 464.795 1336.63 464.929C1336.39 465.063 1336.13 465.137 1335.85 465.144C1335.58 465.151 1335.31 465.092 1335.06 464.97C1334.53 464.834 1334.03 464.555 1333.64 464.162C1333.25 463.769 1332.98 463.278 1332.84 462.74C1332.62 461.66 1332.5 460.562 1332.49 459.46C1332.49 448.613 1332.49 437.757 1332.49 426.89C1332.49 426.53 1332.49 426.16 1332.49 425.79C1332.55 424.66 1332.62 423.49 1334.11 423.4C1334.76 423.312 1335.41 423.448 1335.97 423.784C1336.53 424.121 1336.96 424.638 1337.18 425.25C1337.49 426.304 1337.63 427.402 1337.58 428.5C1337.58 432.55 1337.58 436.6 1337.58 440.65L1337.6 445.94Z" fill="white"/>
<path d="M768.682 449.69C768.748 451.993 768.36 454.286 767.542 456.44C765.642 461.73 762.102 465.07 756.272 465.61C750.442 466.15 744.992 463.56 742.462 458.39C740.964 455.511 740.236 452.293 740.35 449.05C740.464 445.806 741.415 442.647 743.112 439.88C745.732 435.32 750.112 433.37 755.222 433.58C757.743 433.58 760.207 434.32 762.311 435.708C764.414 437.097 766.063 439.072 767.052 441.39C768.247 443.988 768.806 446.833 768.682 449.69ZM763.232 449.96C763.403 447.477 762.862 444.997 761.672 442.81C758.822 437.65 751.072 437.22 747.792 442.01C744.922 446.18 745.202 453.69 748.412 457.57C749.338 458.723 750.554 459.608 751.936 460.135C753.317 460.663 754.814 460.813 756.272 460.57C759.482 460.16 761.462 458.13 762.512 455.08C763.046 453.428 763.289 451.696 763.232 449.96Z" fill="white"/>
<path d="M1108.24 449.39C1108.29 451.921 1107.83 454.436 1106.9 456.79C1105 461.87 1101.47 465.02 1095.9 465.55C1090.33 466.08 1085.76 464.15 1082.59 459.43C1078.74 453.67 1079.17 444.03 1083.43 438.57C1089.33 431.01 1101.81 432.17 1106.27 440.69C1107.59 443.401 1108.26 446.378 1108.24 449.39ZM1102.81 450.08C1102.92 447.409 1102.28 444.76 1100.97 442.43C1097.97 437.62 1090.62 437.31 1087.39 441.87C1084.45 446.02 1084.65 453.54 1087.83 457.44C1091.56 462 1099.63 462.15 1101.98 455.2C1102.56 453.57 1102.84 451.849 1102.81 450.12V450.08Z" fill="white"/>
<path d="M775.782 444.24C775.782 441.66 775.782 439.09 775.782 436.51C775.782 435.51 775.992 434.61 777.052 434.34C777.501 434.224 777.97 434.211 778.424 434.303C778.877 434.395 779.305 434.589 779.672 434.87C780.044 435.142 780.353 435.489 780.581 435.889C780.808 436.289 780.948 436.732 780.992 437.19C781.122 438.47 781.192 439.75 781.202 441.04C781.202 443.98 781.142 446.93 781.252 449.87C781.268 451.705 781.503 453.531 781.952 455.31C782.191 456.253 782.62 457.136 783.214 457.905C783.808 458.675 784.555 459.314 785.406 459.783C786.258 460.252 787.197 460.54 788.164 460.631C789.132 460.722 790.109 460.613 791.032 460.31C792.03 460.083 792.948 459.592 793.691 458.889C794.433 458.185 794.973 457.294 795.252 456.31C795.806 454.36 796.062 452.337 796.012 450.31C796.012 445.71 796.012 441.11 796.012 436.51C796.012 435.59 796.012 434.59 797.202 434.34C797.649 434.216 798.119 434.2 798.573 434.294C799.027 434.388 799.452 434.589 799.812 434.88C800.354 435.365 800.766 435.977 801.012 436.66C801.295 437.532 801.44 438.443 801.442 439.36C801.442 443.78 801.442 448.19 801.442 452.61C801.412 453.345 801.332 454.076 801.202 454.8C799.852 463.58 791.802 468.2 783.522 464.9C781.79 464.242 780.245 463.168 779.025 461.773C777.804 460.378 776.945 458.705 776.522 456.9C776.049 454.932 775.771 452.923 775.692 450.9C775.552 448.7 775.692 446.49 775.692 444.28L775.782 444.24Z" fill="white"/>
<path d="M991.732 433.64C990.542 433.64 989.892 432.58 988.972 432.07C987.102 430.965 984.997 430.319 982.829 430.184C980.661 430.049 978.492 430.429 976.499 431.294C974.507 432.158 972.747 433.482 971.364 435.156C969.981 436.831 969.014 438.81 968.542 440.93C967.613 444.915 968.053 449.096 969.792 452.8C972.592 459.19 979.622 462.13 986.422 460.07C987.982 459.516 989.465 458.763 990.832 457.83C990.974 457.756 991.132 457.718 991.292 457.718C991.452 457.718 991.61 457.756 991.752 457.83C991.867 457.968 991.952 458.128 992.004 458.3C992.055 458.472 992.072 458.652 992.052 458.83C991.952 459.844 991.613 460.82 991.064 461.679C990.515 462.537 989.771 463.254 988.892 463.77C987.651 464.569 986.265 465.116 984.812 465.38C981.263 466.115 977.575 465.753 974.236 464.342C970.898 462.931 968.068 460.538 966.122 457.48C961.502 449.97 961.312 442.15 965.582 434.39C968.992 428.2 975.812 424.13 984.862 425.48C986.436 425.641 987.932 426.241 989.18 427.212C990.429 428.183 991.379 429.485 991.922 430.97C992.124 431.394 992.213 431.862 992.18 432.33C992.147 432.798 991.992 433.25 991.732 433.64Z" fill="white"/>
<path d="M1324.54 454.46C1324.54 457.22 1324.54 459.98 1324.54 462.74C1324.54 463.85 1324.47 465.02 1322.94 465.14C1322.3 465.266 1321.64 465.171 1321.06 464.869C1320.48 464.568 1320.02 464.078 1319.75 463.48C1319.39 462.443 1319.21 461.349 1319.23 460.25C1319.16 456.57 1319.23 452.89 1319.17 449.25C1319.17 447.41 1319.01 445.573 1318.7 443.76C1318.1 440.76 1316.06 439.14 1312.88 438.76C1309.16 438.37 1306.76 439.45 1305.38 442.12C1304.57 443.779 1304.18 445.615 1304.26 447.46C1304.26 451.88 1304.26 456.3 1304.26 460.72C1304.28 461.823 1304.22 462.926 1304.08 464.02C1303.94 464.83 1303.21 465.1 1302.42 465.12C1301.77 465.157 1301.13 464.982 1300.59 464.621C1300.05 464.26 1299.64 463.734 1299.42 463.12C1299.11 462.262 1298.95 461.354 1298.96 460.44C1298.92 455.84 1298.92 451.24 1298.96 446.64C1299.04 444.408 1299.66 442.228 1300.78 440.295C1301.89 438.361 1303.47 436.733 1305.37 435.555C1307.26 434.377 1309.42 433.685 1311.65 433.541C1313.88 433.397 1316.11 433.806 1318.14 434.73C1319.83 435.502 1321.27 436.713 1322.33 438.237C1323.39 439.761 1324.01 441.541 1324.14 443.39C1324.55 447.03 1324.55 450.73 1324.73 454.39L1324.54 454.46Z" fill="white"/>
<path d="M997.732 444.72C997.732 441.78 997.732 438.84 997.732 435.9C997.732 434.68 998.802 434.07 1000.03 434.31C1000.77 434.422 1001.45 434.779 1001.95 435.324C1002.46 435.868 1002.77 436.568 1002.83 437.31C1002.99 438.768 1003.06 440.234 1003.03 441.7C1003.1 445.56 1002.98 449.43 1003.23 453.28C1003.44 456.65 1005.09 459.21 1008.51 460.28C1009.38 460.602 1010.3 460.738 1011.23 460.679C1012.15 460.62 1013.05 460.368 1013.87 459.939C1014.68 459.51 1015.4 458.913 1015.98 458.188C1016.55 457.463 1016.96 456.626 1017.19 455.73C1017.57 454.122 1017.74 452.472 1017.7 450.82C1017.77 446.23 1017.7 441.63 1017.76 437.03C1017.76 435.97 1017.61 434.72 1019.06 434.37C1019.78 434.202 1020.54 434.292 1021.2 434.625C1021.86 434.957 1022.38 435.511 1022.67 436.19C1022.91 436.685 1023.06 437.221 1023.09 437.77C1023.09 443.29 1023.38 448.77 1023 454.31C1022.49 461.53 1017.81 465.61 1010.63 465.76C1003.72 465.9 998.632 461.66 997.872 454.64C997.659 451.337 997.636 448.025 997.802 444.72H997.732Z" fill="white"/>
<path d="M910.312 453.85C910.312 457.17 910.372 460.48 910.312 463.79C910.312 464.92 909.312 465.25 908.312 465.13C906.542 464.92 905.502 464.07 905.242 462.48C905.094 461.387 905.03 460.283 905.052 459.18C905.052 455.87 905.052 452.55 905.052 449.23C905.084 447.943 905.051 446.654 904.952 445.37C904.362 439.76 899.002 436.88 893.952 439.46C893.04 439.916 892.255 440.591 891.668 441.426C891.082 442.26 890.712 443.227 890.592 444.24C890.377 445.898 890.283 447.569 890.312 449.24C890.312 453.66 890.312 458.08 890.312 462.5C890.312 463.59 890.312 464.81 888.922 465.13C888.197 465.289 887.439 465.186 886.783 464.84C886.126 464.494 885.612 463.928 885.332 463.24C885.096 462.547 884.968 461.822 884.952 461.09C884.952 456.09 884.772 451.09 884.952 446.17C885.482 434.4 896.342 431.68 903.522 434.55C907.962 436.32 909.882 440.03 910.282 444.55C910.552 447.65 910.332 450.8 910.332 453.93L910.312 453.85Z" fill="white"/>
<path d="M1030.99 457.78C1033.11 458.94 1035.36 459.833 1037.69 460.44C1039.85 460.946 1042.12 460.793 1044.19 460C1044.89 459.765 1045.51 459.317 1045.94 458.719C1046.38 458.12 1046.61 457.4 1046.62 456.66C1046.75 455.923 1046.62 455.165 1046.26 454.512C1045.89 453.858 1045.32 453.35 1044.62 453.07C1042.75 452.34 1040.8 451.8 1038.88 451.19C1037.27 450.81 1035.7 450.312 1034.16 449.7C1030.62 447.98 1029.4 444.7 1030.64 440.9C1031.08 439.488 1031.84 438.2 1032.87 437.14C1036.53 433.41 1043.69 432.33 1048.26 434.9C1049.2 435.469 1050.04 436.196 1050.73 437.05C1051.73 438.21 1051.79 440.15 1051.06 440.57C1050.06 441.16 1049.34 440.35 1048.57 439.99C1046.04 438.844 1043.23 438.448 1040.48 438.85C1039.19 438.987 1037.97 439.526 1036.99 440.39C1036.6 440.701 1036.3 441.105 1036.1 441.564C1035.91 442.023 1035.83 442.524 1035.88 443.02C1035.93 443.516 1036.1 443.993 1036.38 444.407C1036.65 444.821 1037.03 445.159 1037.47 445.39C1038.64 445.907 1039.85 446.332 1041.09 446.66C1043.18 447.34 1045.34 447.86 1047.37 448.66C1054.08 451.39 1052.95 459.74 1049.22 462.86C1045.49 465.98 1037.76 466.68 1033.59 464C1032.97 463.613 1032.41 463.123 1031.95 462.55C1031.5 461.957 1031.19 461.275 1031.02 460.55C1030.93 459.63 1030.92 458.703 1030.99 457.78Z" fill="white"/>
<path d="M736.612 428.07C736.334 429.676 735.735 431.21 734.852 432.58C732.472 437.135 729.715 441.483 726.612 445.58C724.996 447.586 724.199 450.13 724.382 452.7C724.522 456.01 724.382 459.32 724.382 462.64C724.382 463.75 724.272 464.94 722.792 465.09C722.059 465.218 721.305 465.089 720.656 464.724C720.008 464.36 719.505 463.783 719.232 463.09C719.019 462.2 718.915 461.286 718.922 460.37C718.922 457.61 718.802 454.85 718.922 452.09C719.011 449.886 718.332 447.72 717.002 445.96C713.396 440.846 710.327 435.374 707.842 429.63C707.433 428.81 707.12 427.944 706.912 427.05C706.876 426.871 706.881 426.685 706.926 426.508C706.972 426.331 707.057 426.166 707.175 426.027C707.294 425.887 707.442 425.776 707.61 425.702C707.777 425.628 707.959 425.594 708.142 425.6C709.06 425.449 710.002 425.593 710.832 426.012C711.662 426.431 712.338 427.103 712.762 427.93C713.762 429.7 714.482 431.59 715.472 433.35C717.172 436.4 718.952 439.41 720.782 442.35C721.552 443.6 722.462 443.54 723.342 442.28C726.033 438.323 728.413 434.164 730.462 429.84C730.984 428.668 731.565 427.523 732.202 426.41C732.912 425.3 734.072 425.41 735.202 425.77C735.665 425.935 736.057 426.253 736.313 426.672C736.57 427.09 736.675 427.583 736.612 428.07Z" fill="white"/>
<path d="M1064.74 428.32C1065.95 430.06 1064.08 432.82 1066.24 433.84C1067.77 434.57 1069.84 434.14 1071.67 434.22C1072.22 434.22 1072.77 434.22 1073.32 434.22C1074.44 434.22 1075.68 434.22 1075.72 435.78C1075.81 436.438 1075.66 437.107 1075.29 437.659C1074.92 438.212 1074.36 438.611 1073.72 438.78C1072.47 439.05 1071.2 439.231 1069.92 439.32C1069.01 439.41 1068.08 439.32 1067.16 439.44C1066.24 439.56 1065.38 440.05 1065.37 441.11C1065.37 446.11 1065.19 451.05 1065.44 456C1065.58 459 1067.55 460.56 1070.57 460.66C1071.49 460.624 1072.4 460.534 1073.3 460.39C1074.87 460.25 1075.61 461.19 1075.21 462.65C1075.05 463.277 1074.73 463.851 1074.28 464.316C1073.84 464.78 1073.27 465.12 1072.65 465.3C1066.77 467.3 1061.28 464.18 1060.09 458.14C1059.92 457.237 1059.84 456.319 1059.84 455.4C1059.84 448.78 1059.84 442.16 1059.84 435.53C1059.7 433.492 1060.31 431.474 1061.55 429.85C1062.37 428.85 1063.29 427.89 1064.74 428.32Z" fill="white"/>
<path d="M1199.58 453.12C1199.58 450.73 1199.47 448.34 1199.58 445.96C1199.65 443.561 1200.28 441.21 1201.4 439.09C1202.48 437.139 1204.2 435.623 1206.28 434.806C1208.35 433.988 1210.64 433.919 1212.76 434.61C1213.65 434.871 1214.43 435.438 1214.94 436.212C1215.45 436.986 1215.68 437.917 1215.57 438.84C1215.57 439.56 1215.25 440.28 1214.21 440.06C1213.15 439.778 1212.07 439.578 1210.97 439.46C1207.74 439.27 1206.1 440.46 1205.48 443.57C1205.17 445.376 1205.01 447.207 1205.01 449.04C1204.95 453.64 1205.01 458.23 1205.01 462.83C1205.01 463.75 1204.93 464.71 1203.9 465.11C1203.28 465.271 1202.62 465.248 1202.01 465.044C1201.4 464.84 1200.86 464.464 1200.45 463.96C1199.83 463.04 1199.51 461.95 1199.53 460.84C1199.53 458.26 1199.53 455.69 1199.53 453.12H1199.58Z" fill="white"/>
<path d="M809.712 453.03C809.712 450.64 809.712 448.25 809.712 445.87C809.722 443.277 810.464 440.74 811.852 438.55C812.931 436.816 814.545 435.482 816.451 434.749C818.357 434.016 820.45 433.925 822.412 434.49C823.048 434.611 823.645 434.884 824.152 435.287C824.659 435.689 825.06 436.208 825.322 436.8C825.558 437.198 825.702 437.643 825.744 438.103C825.785 438.563 825.723 439.027 825.562 439.46C824.992 440.58 824.012 439.97 823.172 439.78C822.637 439.637 822.093 439.534 821.542 439.47C817.592 439.17 815.732 440.64 815.292 444.66C815.062 446.85 815.152 449.07 815.132 451.27C815.132 455.27 815.132 459.35 815.032 463.39C815.032 464.82 813.902 465.48 812.262 465.05C811.532 464.898 810.879 464.494 810.417 463.909C809.954 463.324 809.712 462.596 809.732 461.85C809.642 458.91 809.732 455.97 809.732 453.03H809.712Z" fill="white"/>
</svg>
