<svg width="142" height="45" viewBox="0 0 142 45" fill="none" xmlns="http://www.w3.org/2000/svg">
<path fill-rule="evenodd" clip-rule="evenodd" d="M22.2157 9.42954C21.8817 7.15947 22.2714 5.20953 23.385 3.57973C24.4986 1.94994 28.1455 0.756692 34.3259 0C32.9553 0.873106 31.8974 2.06635 31.1522 3.57973C30.0343 5.84981 29.0642 8.55644 27.5609 9.42954C26.5587 10.0116 25.0275 10.1862 22.9674 9.95341C25.0577 7.19273 26.3535 5.55046 26.8546 5.0266C27.2545 4.60846 24.6877 6.29757 23.385 7.77064C23.1654 8.01897 22.7756 8.57193 22.2157 9.42954Z" fill="#7DBC0F"/>
<path fill-rule="evenodd" clip-rule="evenodd" d="M20.1347 6.76512C20.3789 5.25174 20.094 3.95178 19.2803 2.86525C18.4665 1.77872 15.8014 0.983221 11.285 0.47876C12.2866 1.06083 13.0596 1.85633 13.6042 2.86525C14.4211 4.37863 15.1301 6.18305 16.2286 6.76512C16.961 7.15317 18.08 7.26958 19.5854 7.11437C18.0579 5.27391 17.111 4.17907 16.7448 3.82982C16.4525 3.55107 18.3283 4.67714 19.2803 5.65919C19.4408 5.82474 19.7256 6.19338 20.1347 6.76512Z" fill="#7DBC0F"/>
<path fill-rule="evenodd" clip-rule="evenodd" d="M22.4281 26.136C22.4281 24.3831 21.0315 22.9613 19.3068 22.9613C17.5851 22.9613 16.1899 24.3821 16.1899 26.136C16.1886 27.892 17.5851 29.3124 19.3099 29.3124C21.0326 29.3138 22.4281 27.8934 22.4281 26.136ZM11.9159 24.3873C11.9159 26.1554 12.4078 27.8015 13.2627 29.1991C12.7926 28.2701 12.5267 27.2164 12.528 26.0982C12.5267 22.3464 15.5162 19.3 19.205 19.3C22.8925 19.3 25.8796 22.344 25.8823 26.0972C25.8823 29.8538 22.8925 32.8982 19.205 32.8964C18.1067 32.8964 17.0704 32.6264 16.1583 32.1488C17.5327 33.0171 19.1505 33.519 20.8855 33.519C25.8398 33.519 29.8578 29.4313 29.8578 24.3873C29.8578 19.3419 25.8384 15.2525 20.8855 15.2525C15.9312 15.2525 11.9149 19.3419 11.9159 24.3873ZM31.748 18.3197C32.6458 20.0969 33.1568 22.1131 33.1568 24.2497C33.1568 31.4327 27.4385 37.2548 20.3813 37.2562C13.3247 37.2562 7.60744 31.4358 7.60642 24.2497C7.60642 17.0677 13.3257 11.2459 20.3796 11.2459C22.4808 11.2459 24.4599 11.7631 26.2075 12.6775C23.5812 11.0147 20.4824 10.0532 17.1647 10.0532C7.68438 10.0532 0 17.8764 0 27.5273C0 37.1768 7.68438 45 17.1623 45C26.6409 44.9986 34.3263 37.1779 34.3263 27.5245C34.3263 24.1471 33.3825 20.9936 31.748 18.3197Z" fill="#FF9F06"/>
<path d="M43.4243 7.41065V10.1618H47.3426V22.0001H50.2188V10.1618H54.158V7.41065H43.4243Z" fill="#1E1147"/>
<path d="M61.6657 12.8088C60.8529 11.7875 59.7274 11.2873 58.2685 11.2873C56.872 11.2873 55.684 11.8292 54.6836 12.8921C53.704 13.9551 53.2038 15.2473 53.2038 16.7896C53.2038 18.3319 53.704 19.645 54.6836 20.7079C55.684 21.7709 56.872 22.2919 58.2685 22.2919C59.7274 22.2919 60.8529 21.7917 61.6657 20.7704V22.0001H64.3543V11.5791H61.6657V12.8088ZM56.7053 18.9155C56.1634 18.3528 55.8925 17.6441 55.8925 16.7896C55.8925 15.9351 56.1634 15.2264 56.7053 14.6845C57.2472 14.1218 57.935 13.8509 58.7687 13.8509C59.6023 13.8509 60.2901 14.1218 60.832 14.6845C61.3948 15.2264 61.6657 15.9351 61.6657 16.7896C61.6657 17.6441 61.3948 18.3528 60.832 18.9155C60.2901 19.4574 59.6023 19.7283 58.7687 19.7283C57.935 19.7283 57.2472 19.4574 56.7053 18.9155Z" fill="#1E1147"/>
<path d="M72.5865 11.2873C71.1692 11.2873 70.1271 11.7666 69.481 12.7462V11.5791H66.7924V22.0001H69.481V16.3728C69.481 14.6429 70.3772 13.7883 71.7736 13.7883C73.0242 13.7883 73.837 14.5386 73.837 15.9351V22.0001H76.5257V15.6016C76.5257 14.2469 76.1505 13.2048 75.4002 12.4336C74.6707 11.6624 73.7328 11.2873 72.5865 11.2873Z" fill="#1E1147"/>
<path d="M86.8039 12.8713C86.0119 11.8083 84.9073 11.2873 83.4692 11.2873C82.0102 11.2873 80.7805 11.8083 79.7801 12.8504C78.7797 13.8925 78.2795 15.1431 78.2795 16.6229C78.2795 18.1026 78.7797 19.374 79.7593 20.4161C80.7597 21.4374 81.9894 21.9584 83.4692 21.9584C84.9073 21.9584 86.0119 21.4374 86.8039 20.3744V21.4999C86.8039 23.1464 85.7618 24.0635 84.0736 24.0635C82.7814 24.0635 81.8643 23.5841 81.3433 22.6045L79.0506 23.9176C79.9677 25.585 81.7393 26.4603 83.9902 26.4603C85.4908 26.4603 86.7622 26.0435 87.8252 25.189C88.8881 24.3344 89.43 23.1048 89.43 21.4999V11.5791H86.8039V12.8713ZM86.8039 16.6229C86.8039 18.2902 85.5742 19.4782 83.886 19.4782C82.1978 19.4782 80.9681 18.2902 80.9681 16.6229C80.9681 15.81 81.2391 15.1222 81.781 14.6012C82.3437 14.0593 83.0315 13.7883 83.886 13.7883C84.7405 13.7883 85.4283 14.0593 85.9702 14.6012C86.533 15.1222 86.8039 15.81 86.8039 16.6229Z" fill="#1E1147"/>
<path d="M101.997 17.8942C102.06 17.4982 102.102 17.1439 102.102 16.7896C102.102 15.2264 101.601 13.9342 100.601 12.8713C99.6213 11.8083 98.3499 11.2873 96.8285 11.2873C95.2236 11.2873 93.8897 11.8083 92.8685 12.8713C91.8472 13.9134 91.3261 15.2264 91.3261 16.7896C91.3261 18.3736 91.8472 19.6866 92.8893 20.7288C93.9314 21.7709 95.307 22.2919 97.0369 22.2919C99.0377 22.2919 100.559 21.5416 101.58 20.0618L99.4129 18.8113C98.8918 19.4991 98.0998 19.8534 97.0786 19.8534C95.4737 19.8534 94.4941 19.2073 94.1398 17.8942H101.997ZM94.0981 15.81C94.4108 14.4761 95.3904 13.705 96.8285 13.705C98.0581 13.705 99.1003 14.3928 99.4129 15.81H94.0981Z" fill="#1E1147"/>
<path d="M106.667 11.5791H103.978V22.0001H106.667V17.0189C106.667 16.0184 106.98 15.3098 107.626 14.8721C108.272 14.4344 109.022 14.2677 109.835 14.3719V11.3706C108.418 11.3706 107.167 12.0376 106.667 13.3715V11.5791Z" fill="#1E1147"/>
<path d="M112.741 10.3285C113.658 10.3285 114.409 9.57823 114.409 8.68202C114.409 7.78581 113.658 7.01465 112.741 7.01465C111.845 7.01465 111.095 7.78581 111.095 8.68202C111.095 9.57823 111.845 10.3285 112.741 10.3285ZM114.096 22.0001V11.5791H111.408V22.0001H114.096Z" fill="#1E1147"/>
<path d="M122.351 11.2873C120.934 11.2873 119.892 11.7666 119.246 12.7462V11.5791H116.557V22.0001H119.246V16.3728C119.246 14.6429 120.142 13.7883 121.538 13.7883C122.789 13.7883 123.602 14.5386 123.602 15.9351V22.0001H126.29V15.6016C126.29 14.2469 125.915 13.2048 125.165 12.4336C124.435 11.6624 123.497 11.2873 122.351 11.2873Z" fill="#1E1147"/>
<path d="M138.715 17.8942C138.778 17.4982 138.819 17.1439 138.819 16.7896C138.819 15.2264 138.319 13.9342 137.319 12.8713C136.339 11.8083 135.068 11.2873 133.546 11.2873C131.942 11.2873 130.608 11.8083 129.586 12.8713C128.565 13.9134 128.044 15.2264 128.044 16.7896C128.044 18.3736 128.565 19.6866 129.607 20.7288C130.649 21.7709 132.025 22.2919 133.755 22.2919C135.756 22.2919 137.277 21.5416 138.298 20.0618L136.131 18.8113C135.61 19.4991 134.818 19.8534 133.796 19.8534C132.192 19.8534 131.212 19.2073 130.858 17.8942H138.715ZM130.816 15.81C131.129 14.4761 132.108 13.705 133.546 13.705C134.776 13.705 135.818 14.3928 136.131 15.81H130.816Z" fill="#1E1147"/>
<path d="M48.8505 36.7L46.7535 40.21L44.6565 36.7H43.8735V43H44.5035V37.654L46.7085 41.344H46.7985L49.0035 37.654V43H49.6335V36.7H48.8505Z" fill="#1E1147"/>
<path d="M57.1828 42.163C57.8128 41.524 58.1278 40.759 58.1278 39.85C58.1278 38.941 57.8128 38.176 57.1828 37.546C56.5528 36.907 55.7788 36.592 54.8698 36.592C53.9608 36.592 53.1868 36.907 52.5568 37.546C51.9268 38.176 51.6118 38.941 51.6118 39.85C51.6118 40.759 51.9268 41.524 52.5568 42.163C53.1868 42.793 53.9608 43.108 54.8698 43.108C55.7788 43.108 56.5528 42.793 57.1828 42.163ZM52.9978 41.731C52.4938 41.218 52.2418 40.588 52.2418 39.85C52.2418 39.112 52.4938 38.491 52.9978 37.978C53.5018 37.465 54.1228 37.204 54.8698 37.204C55.6168 37.204 56.2378 37.465 56.7418 37.978C57.2458 38.491 57.4978 39.112 57.4978 39.85C57.4978 40.588 57.2458 41.218 56.7418 41.731C56.2378 42.244 55.6168 42.496 54.8698 42.496C54.1228 42.496 53.5018 42.244 52.9978 41.731Z" fill="#1E1147"/>
<path d="M64.1552 41.83L60.6452 36.7H60.1052V43H60.7352V37.87L64.2452 43H64.7852V36.7H64.1552V41.83Z" fill="#1E1147"/>
<path d="M67.7524 40.12H70.5424V39.526H67.7524V37.294H70.7674V36.7H67.1224V43H70.8124V42.406H67.7524V40.12Z" fill="#1E1147"/>
<path d="M76.6288 36.7L74.7568 39.787L72.8758 36.7H72.1648L74.4328 40.399V43H75.0628V40.417L77.3398 36.7H76.6288Z" fill="#1E1147"/>
<path fill-rule="evenodd" clip-rule="evenodd" d="M142 31H43V30.5H142V31Z" fill="#1E1147" fill-opacity="0.24"/>
</svg>
