<svg width="417" height="80" viewBox="0 0 417 80" fill="none" xmlns="http://www.w3.org/2000/svg">
<path d="M42.3871 79.0292C42.0668 79.0292 41.7464 79.0292 41.4261 79.0292C19.9635 79.0292 2.55859 61.5024 2.55859 39.8896C2.55859 18.2768 19.9635 0.75 41.4261 0.75C41.7464 0.75 42.0668 0.75 42.3871 0.75C30.9618 9.88974 23.594 24.0832 23.594 39.8896C23.594 55.696 30.9618 69.8895 42.3871 79.0292Z" fill="white"/>
<path d="M73.8884 79.0331C73.6748 79.0331 73.3545 79.0331 73.0341 79.0331C67.3749 79.0331 62.0359 77.8503 57.2309 75.5923C43.67 69.5708 34.2734 55.8074 34.2734 39.8935C34.2734 23.9796 43.7768 10.2162 57.3377 4.19475C62.1427 2.04422 67.4816 0.753906 73.1409 0.753906C73.3545 0.753906 73.6748 0.753906 73.9952 0.753906C70.8986 3.22701 68.1223 6.13022 65.6664 9.24849C59.1529 17.7431 55.2021 28.3882 55.2021 39.8935C55.2021 51.3988 59.1529 62.0439 65.6664 70.5385C68.0155 73.6568 70.7918 76.56 73.8884 79.0331Z" fill="white"/>
<path d="M143.508 39.8935C143.508 61.5063 126.103 79.0331 104.641 79.0331C104.427 79.0331 104.107 79.0331 103.787 79.0331C101.117 78.9256 98.4478 78.603 95.8851 78.0654C93.4292 77.5277 91.08 76.6675 88.8377 75.6998C82.4309 72.9041 76.9852 68.388 73.0344 62.6891C68.4429 56.2375 65.7734 48.3881 65.7734 39.8935C65.7734 31.3989 68.4429 23.5495 73.0344 17.0979C77.092 11.5065 82.5377 6.99044 88.8377 4.08722C91.08 3.11949 93.4292 2.25927 95.8851 1.72164C98.4478 1.18401 101.117 0.753906 103.787 0.753906C104 0.753906 104.321 0.753906 104.641 0.753906C126.103 0.753906 143.508 18.2807 143.508 39.8935Z" fill="white"/>
<path d="M212.729 15L201.247 53.7348H194.921L186.646 26.5685L178.327 53.7348H172.088L160.562 15H167.235L175.64 43.8995L183.483 17.2097H189.852L197.694 43.8995L206.013 15H212.729Z" fill="white"/>
<path d="M234.003 28.6048C231.966 26.7418 229.107 25.8319 225.38 25.8319C222.954 25.8319 220.788 26.1352 218.795 26.9151C216.802 27.6516 214.895 28.8215 213.162 30.4679L216.585 34.5407C217.798 33.3275 219.098 32.461 220.528 31.8977C221.914 31.3345 223.387 31.0312 224.861 31.0312C226.767 31.0312 228.283 31.5078 229.367 32.4177C230.45 33.2842 230.97 34.6274 230.97 36.4471V37.227H222.867C221.568 37.227 220.311 37.3137 219.098 37.5303C217.928 37.7903 216.888 38.1802 215.978 38.7435C214.939 39.3934 214.072 40.26 213.422 41.3865C212.772 42.513 212.469 43.8128 212.469 45.3293C212.469 47.1057 212.945 48.6655 213.812 50.0086C214.635 51.3085 215.892 52.3916 217.452 53.1282C219.011 53.8648 220.831 54.2547 222.867 54.2547C224.427 54.2547 225.944 53.9514 227.287 53.3015C228.587 52.6516 229.757 51.6984 230.71 50.3553C230.796 50.2253 230.926 50.0953 230.97 49.8786L231.36 53.7781H237.036V36.4904C237.079 33.1109 236.082 30.5113 234.003 28.6048ZM229.973 45.8925C229.323 46.9324 228.457 47.7556 227.33 48.3622C226.247 48.9254 225.034 49.2287 223.734 49.2287C222.218 49.2287 221.004 48.8388 220.095 48.1889C219.185 47.4956 218.751 46.5858 218.751 45.3726C218.751 44.766 218.838 44.2461 219.055 43.8128C219.315 43.3795 219.618 43.0329 219.965 42.6863C220.484 42.383 221.091 42.123 221.784 41.993C222.434 41.9064 223.084 41.8197 223.777 41.8197H231.013V42.383C230.97 43.6828 230.666 44.8093 229.973 45.8925Z" fill="white"/>
<path d="M244.271 65L249.73 51.8718L239.289 26.3085H246.091L253.023 45.7193L260.086 26.3085H266.758L250.987 65H244.271Z" fill="white"/>
<path d="M289.982 28.6048C287.945 26.7418 285.042 25.8319 281.316 25.8319C278.933 25.8319 276.767 26.1352 274.774 26.9151C272.781 27.6516 270.874 28.8215 269.098 30.4679L272.564 34.5407C273.734 33.3275 275.077 32.461 276.464 31.8977C277.893 31.3345 279.367 31.0312 280.883 31.0312C282.789 31.0312 284.306 31.5078 285.389 32.4177C286.472 33.2842 286.992 34.6274 286.992 36.4471V37.227H278.847C277.547 37.227 276.334 37.3137 275.12 37.5303C273.907 37.7903 272.911 38.1802 272.001 38.7435C270.918 39.3934 270.094 40.26 269.445 41.3865C268.795 42.513 268.491 43.8128 268.491 45.3293C268.491 47.1057 268.968 48.6655 269.791 50.0086C270.658 51.3085 271.914 52.3916 273.517 53.1282C275.077 53.8648 276.897 54.2547 278.933 54.2547C280.493 54.2547 282.01 53.9514 283.266 53.3015C284.609 52.6516 285.779 51.6984 286.732 50.3553C286.819 50.2253 286.949 50.0953 286.992 49.8786L287.382 53.7781H293.058V36.4904C293.101 33.1109 292.018 30.5113 289.982 28.6048ZM286.949 42.383C286.949 43.6828 286.559 44.8527 285.909 45.8925C285.259 46.9324 284.393 47.7556 283.266 48.3622C282.14 48.9254 280.97 49.2287 279.627 49.2287C278.153 49.2287 276.897 48.8388 276.03 48.1889C275.12 47.4956 274.644 46.5858 274.644 45.3726C274.644 44.766 274.774 44.2461 275.034 43.8128C275.25 43.3795 275.597 43.0329 275.944 42.6863C276.464 42.383 277.07 42.123 277.72 41.993C278.413 41.9064 279.063 41.8197 279.757 41.8197H286.992V42.383H286.949Z" fill="white"/>
<path d="M299.023 53.7348V15H312.238C316.008 15 318.997 15.8666 321.164 17.5997C323.33 19.3328 324.413 21.7158 324.413 24.7487C324.413 26.6118 324.023 28.2149 323.243 29.6014C322.464 30.9879 321.38 32.1144 319.951 32.8943C322.117 33.5875 323.72 34.7574 324.803 36.4038C325.886 38.0502 326.406 40.0866 326.406 42.513C326.406 46.0225 325.323 48.7955 323.113 50.7452C320.904 52.7383 317.828 53.7348 313.841 53.7348H299.023ZM305.479 30.8145H312.715C314.361 30.8145 315.661 30.3813 316.614 29.4714C317.568 28.5615 318.044 27.305 318.044 25.7019C318.044 24.1854 317.524 23.0156 316.528 22.149C315.488 21.2825 314.101 20.8925 312.282 20.8925H305.523V30.8145H305.479ZM313.365 47.8423C317.828 47.8423 320.037 45.9792 320.037 42.2097C320.037 40.4333 319.517 39.0468 318.434 38.0502C317.394 37.0537 315.921 36.5771 314.015 36.5771H305.436V47.8423H313.365Z" fill="white"/>
<path d="M351.883 28.6048C349.846 26.7418 346.987 25.8319 343.261 25.8319C340.878 25.8319 338.668 26.1352 336.675 26.9151C334.682 27.6516 332.775 28.8215 331.042 30.4679L334.465 34.5407C335.678 33.3275 336.978 32.461 338.408 31.8977C339.838 31.3345 341.268 31.0312 342.741 31.0312C344.691 31.0312 346.164 31.5078 347.247 32.4177C348.33 33.2842 348.85 34.6274 348.85 36.4471V37.227H340.748C339.448 37.227 338.191 37.3137 336.978 37.5303C335.808 37.7903 334.769 38.1802 333.859 38.7435C332.819 39.3934 331.996 40.26 331.346 41.3865C330.696 42.513 330.392 43.8128 330.392 45.3293C330.392 47.1057 330.826 48.6655 331.692 50.0086C332.559 51.3085 333.772 52.3916 335.332 53.1282C336.892 53.8648 338.711 54.2547 340.748 54.2547C342.307 54.2547 343.824 53.9514 345.167 53.3015C346.51 52.6516 347.637 51.6984 348.59 50.3553C348.677 50.2253 348.807 50.0953 348.893 49.8786L349.283 53.7781H354.916V36.4904C354.959 33.1109 353.963 30.5113 351.883 28.6048ZM347.853 45.8925C347.204 46.9324 346.337 47.7556 345.21 48.3622C344.127 48.9254 342.957 49.2287 341.614 49.2287C340.098 49.2287 338.885 48.8388 337.975 48.1889C337.108 47.4956 336.632 46.5858 336.632 45.3726C336.632 44.766 336.718 44.2461 337.022 43.8128C337.238 43.3795 337.541 43.0329 337.888 42.6863C338.451 42.383 339.015 42.123 339.708 41.993C340.358 41.9064 341.051 41.8197 341.701 41.8197H348.937V42.383C348.85 43.6828 348.547 44.8093 347.853 45.8925Z" fill="white"/>
<path d="M385.115 35.9705V53.6915H378.963V38.2669C378.963 35.8405 378.529 34.0641 377.663 32.8943C376.753 31.7244 375.41 31.1612 373.547 31.1612C372.16 31.1612 370.99 31.4645 370.08 32.1144C369.127 32.7643 368.434 33.7608 367.957 35.104C367.438 36.4905 367.221 38.2235 367.221 40.3466V53.6915H361.068V26.2652H367.221V30.1213C367.481 29.6014 367.871 29.1681 368.261 28.7348C369.127 27.7816 370.254 27.0017 371.51 26.5251C372.723 26.0485 374.067 25.8319 375.41 25.8319C378.529 25.8319 380.912 26.6984 382.645 28.4749C384.249 30.2513 385.115 32.721 385.115 35.9705Z" fill="white"/>
<path d="M416.268 53.7348H408.902L400.626 40.6499L396.51 45.2426V53.7348H390.314V15H396.51V37.357L407.125 26.3085H415.011L405.132 36.5338L416.268 53.7348Z" fill="white"/>
</svg>
